<svg xmlns="http://www.w3.org/2000/svg" width="80.639" height="41.55" viewBox="0 0 80.639 41.55"><defs><style>.a{fill:#fff;}</style></defs><g transform="translate(-11.025 -129.75)"><g transform="translate(11.025 129.75)"><path class="a" d="M14.806,150.529l4.312,4.312a45.635,45.635,0,0,0,64.469,0l4.3-4.312-4.312-4.312a45.635,45.635,0,0,0-64.469,0ZM51.345,171.3A48.574,48.574,0,0,1,16.9,157.047l-5.415-5.415a1.58,1.58,0,0,1,0-2.222L16.9,144a48.775,48.775,0,0,1,68.9,0l5.415,5.415a1.58,1.58,0,0,1,0,2.222l-5.415,5.415A48.574,48.574,0,0,1,51.345,171.3Z" transform="translate(-11.025 -129.75)"/><path class="a" d="M179.56,167.627a11.933,11.933,0,1,0,11.933,11.933A11.941,11.941,0,0,0,179.56,167.627Zm0,26.992a15.06,15.06,0,1,1,15.06-15.06A15.077,15.077,0,0,1,179.56,194.619Z" transform="translate(-139.24 -158.781)"/></g></g></svg>