<svg xmlns="http://www.w3.org/2000/svg" width="140.09" height="57.782" viewBox="0 0 140.09 57.782"><defs><style>.a{fill:#fff;}</style></defs><g transform="translate(-4.01 -6.59)"><g transform="translate(4.01 6.59)"><path class="a" d="M4.252,12.658V12.9l.365.121.727-.365h.244V12.9c-.244,0-.365.081-.365.242H4.252l.244.244H5.587l.365-.244v.244h3.64c0-.262.2-.465.606-.606h.365v.244q-.728.06-.729.365H10.2v.244l-.606.121-.85-.121H4.252l-.242-.244V12.9Zm-.121-.485H4.5v.244H4.131Zm9.831-.727h.244v.244l.121-.121.606.121h.244v-.121l.606.121H18.21l2.307.121L21,11.689v.242l-1.334.244h-.485l-.61-.123-.121.365-.244-.244.244-.244H16.631v.121h.244v.121l.365-.121.365.121.121-.121.121.121-.121.365h-.244v-.242h-.123l-.485.121a.322.322,0,0,1-.365-.365h-.971v.727l-.244.365.244.244v.365l-.121.121.121.121v.121l-.121.121.365,1.336v.971c0,.244-.244.365-.727.365v.242H15.3l.123-.121h.121l.244,1.092-.85.121v.121q.728,0,.729.971l.121,1.092L15.662,22l.121.727-.244,1.336.244.242L15.539,26l.123,1.213-.123.971.123.971-.123.85.123.606-.123.121V31.1h.123l-.123,1.213v.727l.123.485-.123.121v.121l.244,2.307-.121.85.121.365H15.9l.365-.244.242.365v.121l-.485.971H15.9c0-.242-.081-.365-.242-.365v.121l.242.365-.242,2.063.121,1.092-.121,1.092.485.606-.121.121v.121L15.9,43.6h-.242v.121H15.9l-.121.121v.121H15.9l.606-.244.729.244V44.2l-.971.244V44.2h-.244v.244l.244.244,1.092-.365q1.577.091,1.577.365l-.365.606.365.121-.244.606H17.6v-.242h-.244v.242H16.025c0-.2-.2-.323-.606-.365a.74.74,0,0,1-.485.727H14.81l-.244-.485v-.244h-.121L14.2,45.9l.121.121-.121.121-.85-.121h-.485v-.242h.485V45.66h-.971v-.244l-.606.121-.729-.242c-.324.02-.485.1-.485.242l-.365-.121-1.577.121-.727-.121c0,.163.121.244.365.244v.365H8.134v-.242H7.407v.242H6.8l-.244-.242v-.121H6.8v-.121l-.606-.121H5.1l-.244-.242v-.606l.123-.121v-.121l.85.121H7.894v-.121H6.558v-.244a1.729,1.729,0,0,0,1.336-.606c.323.04.485.163.485.365h.244V43.6H9.23l.121.121h.123l.121-.121v-.121l-1.577-.121v-.121l.244-.727h.365v-.244c-.324,0-.485-.081-.485-.242V41.9h.485v-.121c-.324,0-.485-.121-.485-.365V41.3l.244-.365-.244-.242v-.244l.123-.121-.123-.121v-.121l.365-.85c-.244,0-.365-.2-.365-.606,0-.161.4-.284,1.213-.365l-.121-.121v-.121l-.121.121H8.381l-.121-.121H8.138L8.26,37.9v-.121l-.123-.121v-.121l.606-.121V37.3H8.259v-.244H8.5v-.121c-.2,0-.324-.161-.365-.486l.365-.121-.365-.486.123-.121-.123-.606v-.121c0-.161.161-.244.485-.244v-.121c-.324,0-.485-.081-.485-.242l.123-.121.121.121h.971l.244-.244H8.383l-.244-.485v-.121l.244-.244H9.839V33.17l-.85-.121-.121.121H8.5l-.365-.365.123-.121h.121l.729.121.242-.244H8.863V32.32h.485v-.244H8.863l-.606.121v-.244c.244,0,.365-.081.365-.242v-.121H8.257v-.244h.365l.727-.121.123.121,1.456-.121v-.121H8.378l-.244-.244.365-.121.121.121.727-.121,2.063.121.365-.121.365.121-.244-.244h-.361L8.257,30.5l-.123-.121v-.244l.123-.485-.123-.485V29.04l.365-.365,1.334.121.121-.121v-.121H8.376l-.244-.244.123-.606-.123-.121c.161,0,.244-.121.244-.365L8.5,27.1H9.833v.242h-.85v.121H10.2l-.121-.121v-.121L10.2,27.1,9.1,26.855H8.133v-.121l.244-.242h2.307l.485.121.365-.121.85.121v-.244l-.606-.121H8.257v-.365H8.5V25.64H8.257V25.4l.244-.365-.123-.121a5.582,5.582,0,0,1,1.821-.727l.606.121.365-.121.121.121V23.94h1.092v-.121L11.9,23.7l-.121.121h-.123l-.121-.121H11.41q-.728,0-.727.365H9.591l-.606-.121-.121.365H8.742l-.485-.242V23.7l.244-.365q-.365-.121-.365-.727c0-.161.161-.244.485-.244l.244-.606.85.121h1.213l-.244-.244H9.471l-.123-.121-.121.121H8.257v-.121l.121-.121-.121-.606v-.365H9.713V20.3q-1.577,0-1.577-.365l.123-.121V19.7l-.123-.485.121-.119-.123-.121v-.242c0-.161.244-.284.729-.365l1.092.365.971-.244.365.244.121-.121h.244l.485.121.971-.244v.365l.365-.244.123.121h.121v-.244c0-.161-.2-.242-.606-.242v-.121c.081-.323.244-.485.485-.485V17.39h-.123l-1.456.727h-.606L11.292,18l-.121.121h-.121L10.323,18l-1.092.121c0-.141-.2-.262-.606-.365l-.121.121v.121l.121.121H8.5l-.365-.365.123-.121-.123-.606v-.365l.244-.365c-.365,0-.606-.323-.727-.971l-.485-.485c0-.161.365-.244,1.092-.244v-.121a.74.74,0,0,1-.729-.485l.123-.121H7.9c.4.02.606.1.606.244l.365-.121,2.063-.121v.121l.121-.121H11.3v.244q.849,0,.85-.244l.606.121h.85v-.121c0-.181-.4-.3-1.213-.365l-.121.121-.121-.121v-.244l.121-.121v-.121l-.485-.365-.123.121V12.9l.123.365-.123.121h-.128c-.3-.323-.546-.485-.729-.485v-.244h.85v-.242h-.121l-1.821.121-.85-.121-.729.121-.606-.121-.121.121L6.8,12.411H4.737v-.244l1.213-.121H8.013v-.121L7.892,11.8v-.121h.365v.242h.606v-.242h2.913l.848-.121v.121l.123-.121h.121l.729.121ZM5.1,44.941v.121h.365v-.121Zm.485,0v.121l.606.244v-.244l-.485-.121Zm.242-32.283.971.121.971-.121h.123l.121.121.121-.121h.971l.121.121h.121l-.242.485c-.4,0-.606-.121-.606-.365H7.771v.242H7.528L7.042,12.9l-.485.242q-.728-.121-.727-.365ZM5.95,45.67h.365v.365H5.95Zm.608-31.8h.485l.244.244v.244H7.165l-.606-.121ZM6.679,44.7v.121H7.892V44.7Zm.485.486-.244.242.244.244.365-.121-.121-.121v-.121l.121-.121H7.165Zm.85-.85v.121h.365v-.121Zm0,.365v.121c.244,0,.365.081.365.244h.244V44.82h.121v.365h.121L9.23,44.7ZM8.378,24.31l.123.121v.121l-.123.121H8.134v-.121ZM8.257,43.97v.121H8.5V43.97Zm.244,1.7h.365l.244.244v.121H8.5V45.67Zm.121-8.739v.121h.606v-.121Zm0,4v.121h.244v-.121ZM8.742,14.6v.123l.365.121.365-.121V14.6H8.742Zm.121,1.215c0,.163.121.244.365.244h.121v-.121Zm0,6.31v.242h.971l-.244-.242Zm0,3.642v.121h.244v-.121Zm0,9.223.244.365-.121.121V35.6l.121.121.606-.365h.121v-.244H9.591v-.121l-.121.121H9.347Zm0,1.092V36.2h.365v-.121Zm.121,7.647-.121.121v.121l.606.121v-.242Zm0-26.943v.121h.244v-.121Zm0,13.228v.121H9.47l.244-.486H9.591Zm0,4.611v.121h.606v-.121Zm0,4.369v.244h.121v-.244Zm0,4v.121h.244V43Zm0,1.336v.121l.971.121.365-.121v-.121Zm.123-24.88.121.606h.485q-.244-.547-.485-.606Zm0,22.938v.121h.242v-.121Zm.121-26.822v.121h.365v.121l-.121.121v.121a3.05,3.05,0,0,1,1.577.244l.485-.121v-.244h-.606l-.121-.121h-.121l-.121.121-.244-.365-.365.121-.121-.365H9.471Zm0,12.258v.242h.121l.971-.121.121.121.123-.121v-.121Zm2.548,3.4c0,.163.121.244.365.244v.244l-2.307-.121-.365.121-.123-.121-.121.121v.121l2.063.242c0-.161.121-.242.365-.242l.606.121.244-.485ZM9.228,40.936v.244l.365.121.606-.121h.244l.244.244h-.244l-.121-.121H10.2v.242l.606-.121.971.242.121-.121v-.121a3.5,3.5,0,0,0-1.821-.365v-.121l-.123.121H9.468l-.123-.121H9.228Zm.121-7.4q0,.181,1.092.85h.485v-.244a.823.823,0,0,1-.606-.365l-.244-.242-.123.121H9.833Zm0,3.4.244.242h.971v-.121l-.608-.121Zm.123-20.146v.365h.606v-.244Zm0,6.068V23.1h.244v-.244Zm0,9.952v.121h.485v-.121Zm0,4.611v.121h.365v-.121Zm.848,8.253h.121l.244.244-1.213.121v-.242ZM9.592,39.6v.244h.244Zm.121-7.4v.244l.727.242h.244l.244-.242v-.121l-.121.121h-.121l-.365-.244Zm0,2.063v.121h.365v-.121Zm0,2.063v.121l1.456.121h1.821v-.121l-.606-.121Zm0,2.063v.121h.242v-.121Zm0,4.369V43h.242v-.242Zm0,2.184v.244l.242-.244ZM9.834,14.6v.485H10.2l.244-.242.606.121h.729v-.242l-.606-.121H9.834Zm0,20.025v.121h.244v-.121Zm0,9.1v.121h.244v-.121ZM9.955,20.3v.244L10.2,20.3Zm0,12.863v.121h.608v-.121Zm0,1.821v.242l.244-.242Zm0,2.427v.242h.365v-.121Zm.123-15.17v.121l1.821.121.85-.121v-.121l-.485-.121-.727.121-1.092-.121Zm0,20.752v.121h.365V43ZM10.2,16.785l.244.242v-.242Zm0,12.5v.121h.365v-.121Zm0,6.311v.121h.244V35.6Zm0,3.64v.244l.85.121.121-.121V39.36l-.365-.121-.121.121h-.121Zm0,.606v.121l.606.121.121-.121v-.121l-.121-.121Zm0,5.218v.121h.244v-.121Zm.121-25.242v.121h.727v-.121Zm0,4.855.121.365h.123l.242-.244v-.242h-.121Zm0,.727v.121h.244V25.4Zm.971,2.913c0,.121-.324.284-.971.485v.121h.121l1.213-.485v-.121ZM10.32,44.578v.242h.121v-.242Zm.121-17.6.123.121v.121l.121-.121h.121l.485.121.121-.121v-.244h-.365Zm0,15.657v.121h.365v-.121Zm0,1.7c0,.161.123.244.365.244h.121v-.121Zm.123-9.71v.244h.242v-.244Zm0,2.913.242.242h.244v-.242Zm.242-9.829-.121.365h.727C11.412,27.93,11.21,27.809,10.805,27.708Zm0-10.923v.121h.244v-.121Zm0,4.49.244.244v-.244Zm1.7,7.281c0,.324-.121.485-.365.485l-.365-.244-.123.121c0,.161-.2.244-.606.244l-.121.121V29.4l.485.121v.244c-.4,0-.606.081-.606.242l.485.121c0-.161.161-.242.485-.242,0-.244.081-.365.242-.365h.729v-.244L12.5,29.04l.244-.485h-.242Zm-1.7,10.437v.121h.244v-.121Zm0,4v.121h.485V43Zm.244-4.853-.121.365.485.121-.121-.121v-.121l.121-.121v-.121h-.365Zm-.121,4.247v.121h.244v-.121Zm.121-17.476v.121h.365v-.121Zm0,18.447v.242h.121v-.242Zm0,.485.121.365h.242v-.242h.729v-.121H11.049Zm0,1.942h.485v.242h-.485Zm.121-5.826.485.365h.123v-.121l-.485-.244Zm.121-18.083V22l.727-.121-.242-.244h-.242Zm0,3.884v.121h.365v-.121Zm0,5.461v.121h.365v-.121Zm0,5.824v.121h.485v-.121Zm.121-16.626v.121h.365v-.121Zm0,6.918v.121h.365v-.121Zm0,6.068v.244h.244v-.244Zm0,.85v.121h.244v-.121Zm0,.485v.121H11.9v-.121Zm0,7.281v.242l.485-.121v-.121Zm0,2.427.244.244.123-.121v-.121h-.366ZM11.534,19.7v.244h.121l.606-.121V19.7h-.727Zm0,23.425v.244l.606.121h.121v-.121l-.485-.244Zm.121-10.8v.121l.485.121c0-.161-.123-.242-.365-.242Zm.121-5.22.365.365h.485l.123-.485h-.123Zm0,1.336H11.9l.244-.244h-.123Zm0,10.923v.121h.242v-.121Zm0,5.582v.244h.606v-.121Zm.608.729v.365h-.606v-.242ZM12.018,14.6l-.121.485h.121a2.627,2.627,0,0,1,1.456-.242l.123-.121V14.6h-.244l-.121.121-.606-.121h-.608Zm.123,2.186-.244.365.365.121.121-.121H13.6v-.244h-.606l-.606.121ZM11.9,25.037v.244h.121v-.244Zm0,8.131v.121h.244v-.121Zm.121-20.752v.242l1.092.606.121-.121-.121-.365h.121l.485-.121v-.242l-.121.121-.606-.121Zm0,10.8v.242h.244v-.242Zm0,12.379v.121h.244V35.6ZM12.141,20.3l.244.244.365-.121v-.121h-.608Zm.121,5.339-.121.121v.121l.727.242h.123Q12.991,25.8,12.262,25.644Zm0,11.166-.121.365h.244l.121-.365Zm-.121,5.34v.121h.244v-.121Zm.121-26.457v.121l.485-.121V15.45H12.5Zm0,14.926v.121h.365V30.62Zm0,4.613v.121h.244v-.121Zm0,3.276v.244h.244v-.244Zm0,1.456.365.365.244-.365ZM12.384,21.4v.121h.365V21.4Zm0,8.616v.244h.242v-.244Zm0,11.287v.121l.365.121h.121v-.121l-.365-.121Zm.121-19.539v.121L13.6,22l-.244-.244h-.848Zm0,.971v.121h.606v-.121Zm0,1.455v.121h.365v-.121Zm0,.973v.121l.365.121.485-.121v-.244Zm0,1.334v.121h.365v-.121Zm0,8.253v.121l.606.121v-.244h-.606Zm0,3.155v.121h.727V37.9Zm.606-18.568.121.121v.121h-.121l-.485-.121v.485h.244v.121c.4-.1.606-.222.606-.365l-.121-.365h-.244ZM12.626,39.6v.121h.365V39.6Zm0,2.427v.121l.244.242h.123l.242-.242Zm0,3.034v.121h.365v-.121Zm.121-11.407v.121h.244v-.121Zm0,2.426V36.2h.485v-.121Zm0,1.215h.365v-.244h-.121Zm.121-16.87.123.365h.365l.244-.244v-.121Zm0,3.4v.121l.485.242h.121l.123-.365h-.729Zm0,4v.121h.244v-.121Zm0,6.432v.121h.365v-.121Zm0,1.336v.121h.244V35.6Zm.123-11.045v.242h.365v-.242Zm0,19.9v.121h.242v-.121Zm.121-22.088v.121h.365v-.121Zm0,10.8v.244h.244v-.244Zm0,.487v.121h.244v-.121Zm0,9.708v.242h.121v-.242Zm.121-22.331v.121h.244v-.121Zm0,24.03v.121h.606v-.244Zm.242-2.426v.121h.365v-.121Zm.123,1.455-.123.121v.121H13.6l.365-.121v-.121Zm.121-33.5h.244v.244h-.244Zm.485-4h.242V7.2l-.242.242L13.96,7.2ZM14.325,7.8v.365L14.2,8.29v.121l.242.242v.971l-.242.244h-.121V8.046Zm0,5.824-.244.485v.244h.244l.365-.606Zm-.242,2.307v.121h.244v-.121Zm0,.971v.242h.244l.242-.242Zm0,10.316v.121l.365.121v-.242Zm.121-16.87h.242v.242H14.2Zm0,1.577v.121h.242V11.93Zm.121.606v.121h.244v-.121Zm0,2.669.244.244h.121v-.244Zm.121,12.987v.365h.121v-.365Zm.608-7.647-.121.121v.121l.365.121.123-.121v-.119Zm-.123,1.336V22h.244v-.121Zm.123,1.092v.244H15.3v-.244Zm0,2.307V25.4H15.3v-.121Zm.121-9.952v.244H15.3v-.244Zm0,.727v.365h.244v-.365Zm.365-5.7h.123c.161,0,.242.121.242.365l-.121.365h-.121l-.365-.365V10.6Zm.121-1.092.121.121-.121.365h-.244V9.5Zm0,34.952v.244h.121v-.244Zm0,.727v.244h.848v.121l-.121.365.121.121h.365l.242-.244v-.242l-.121.121h-.244v-.242h.365v-.121Zm.121-.363V44.7h.244v-.121Zm1.577.484v.121a1.259,1.259,0,0,1,.85.242v-.242l-.485-.121Zm1.7-32.767h.365v.242h-.365Z" transform="translate(-4.01 -6.59)"/><path class="a" d="M110,101.41l.121.121h.121l.727-.121.486.121.121-.121h.123q2.306.242,2.3.486l.123-.121h.121a21.91,21.91,0,0,0,3.64,1.092,15.4,15.4,0,0,1,6.918,7.4l.485,1.456-.121.727.121,1.213v.121l-.365.606.121.121v.121q-.819,2.55-1.334,2.548l.121.121v.244a.727.727,0,0,1-.727.606l-.123.365.123.365c-.163,0-.244.121-.244.365l-.121.121-.244.485c-.324,0-.566.284-.729.85-.161,0-.365.284-.606.85q-1.577,1.577-2.063,1.577v-.244q.607,0,2.427-2.427v-.121h-.242v-.121a17.658,17.658,0,0,0,2.548-6.432l-.121-.121v-.244l.121-.121-.121-.121.244-1.334-.244-1.456h-.244v.727a19.153,19.153,0,0,1-1.577,5.461h-.365c.123.324.244.485.365.485q-.335,1.215-.85,1.215h-.486v.121h.729v.244l-.486.121v.121h.244v.242h-.486v.121h.244v.121c0,.161-.121.242-.365.242l.121.121v.121c0,.161-.121.244-.365.244l-.244.485.123.121v.124l-.244.242v-.242h-.365l.121.121v.121q0,.365-1.7.486v.121l.365.121.485-.121h.123v.121l-.244.244.121.121v.121q0,.275-1.092.485c0,.141-.365.344-1.092.606v.121h.121l1.336-.365q0,.426-2.792.85l-.365.242-.606-.121c0,.161-.121.242-.365.242l-.123.121v.121H114l2.427-.244-.121.121v.121h.121l.606-.244v.244l-2.548.485-.485-.244-.365.121-.121-.121a17.078,17.078,0,0,1-3.278.244h-.485l-.121-.121-.365.121-.727-.121-.121.121-.606-.121h-.971l-.242-.242.121-.121h-.244v.242l-1.213-.242v-.244h.244v-.121l-.606-.121-.123.121H104.3a7.2,7.2,0,0,1-2.427-1.092h-.119v-.121l.123-.121v-.121h-.729v-.244h.729V122.4a3.384,3.384,0,0,1-1.456-.242v-.244h.971V121.8h-1.334l-.244-.365v-.121h.485l.121.121.606-.244v.121l.365.121v.121l.121-.121h.123l.121.121.123-.121h.121l.365.242c0-.242-.242-.365-.727-.365v-.244h-.971l-1.213.121v-.356h.242v-.244l-.606.121-.121-.121v-.121l.121-.121v-.121l.606.121h.486v-.121q-1.091,0-1.092-.365l.121-.121H98.96v.244h-.244c0-.161-.121-.244-.365-.244l-.121-.121v-.365h.121l.365.244.244-.244.971.244h.365l.365-.244.242.244.121-.121,1.456.121.606-.121v-.244h-1.213l-.123-.121-.121.121h-.606l-1.456-.121.244-.365h-.123l-.365.244v-.244H99.2l-.244.244c.244,0,.365.081.365.242q-1.577,0-1.577-.727l-.123-.121.244-.244h.244l.485.121h.121v-.121q-1.456,0-1.456-.85v-.121l.365-.365h.123l.365.244.486-.121-.121.121v.121h.244l.244-.242-.121-.121v-.121l.121-.121-.606.121H97.75l-.123-.121-.121.121h-.121q-.486,0-.606-1.092l.121-.121a2.181,2.181,0,0,1,1.336.606l.727-.606h.121l1.336.121v-.244H96.894v-.121l.121-.121v-.121h-.242V114.4h.848v-.121c-.242,0-.365-.081-.365-.244v-.121h.365l.123.121h.121l.123-.121v-.121l-1.092-.121-.121.121-.121-.121v-.121l.121-.121v-.121l.971.244v-.244l-.971-.121.121-.121v-.121l-.121-.121.121-.121v-.121l-.244-.485c0-.323.323-.486.971-.486l.123-.121v-.121l.485.121h.486v-.121H98.11c.02-.4.1-.606.244-.606l.365.121-.121-.121v-.121h.244v.244h.485l.365-.365V110.4a.987.987,0,0,1-.848-.365H98.6l.121.121v.244h-.244v-.244h-.242c0,.161-.2.244-.608.244v.121h.365v.121l-.123.121v.121l.123.121-.123.121h-.121v-.365H97.5c0,.244-.081.365-.244.365h-.121l-.244-.486.485-.121V110.4h-.365v-.486q.242-.607.486-.606l-.121-.606H97.5l.121.121h.123l.121-.365-.244-.244c0-.161.161-.242.486-.242l-.121-.606c.121,0,.365-.323.727-.971.323-.161.485-.365.485-.606l1.334-.121v-.121q-.97,0-.971-.242l.606-.244,1.092.121.121-.121v-.121h-1.213v-.121a.835.835,0,0,1,.85-.486h.365v-.121l-.121-.365h.121a7.517,7.517,0,0,1,2.669-1.213h.121l.365.121.121-.121-.121-.121v-.244l.727-.121.121.121.365-.121v-.121H106l-.121.121v.121h.85v-.121h-.365v-.244Zm-12.987,12.5v.365h-.121l-.244-.244.121-.121Zm0-.971v.121h.606v-.121Zm.123,3.157v.121h.244V116.1Zm.121-3.519v.121h.486v-.121Zm.121-3.157v.244h.727v-.244h-.121l-.123.121h-.121Zm0,5.461V115h.365v-.121Zm.121-2.79v.121h.244v-.121Zm0,5.461v.121h.606v-.121Zm.121-8.5.244.242v-.242Zm0,7.039v.121l1.7.121h.121v-.121l-.486-.121Zm.123-3.763v.121h.485l-.123-.121v-.121Zm0,.606v.121h.365v-.121Zm0,1.336v.121h.244v-.121Zm.121-.971v.121h.244V113.3Zm0,1.213v.121l.729.121c0-.161-.121-.244-.365-.244h-.365Zm.123-6.189v.121l.606.121h.121l.244-.244v-.121h-.365Zm0,7.039h.485v.121l-.242.242-.244-.242Zm.242-6.189v.121h.242v-.121Zm0,.363v.121h.242v-.121Zm0,.244v.121h.242v-.121Zm.121,2.792-.121.121v.121l.121.121-.121.121a.322.322,0,0,1,.365.365h.121l.85-.121c0,.163.121.244.365.244l.365-.121-.242-.244-.123.121h-.121l-.244-.242H98.473v-.244h.486V112.7Zm-.121,4.732.242.244v-.244Zm.121-5.1c0,.181.323.3.971.365v-.242l-.365-.121-.121.121h-.121Zm.121-5.1v.242h.121v-.242Zm.244-.365v.121l.365.121v-.244h-.365Zm0,2.427v.121h.606l-.121-.121v-.121Zm0,2.427v.121H99.2l.121-.121v-.244Zm0,3.276V115h.244v-.121Zm0,2.671v.121h.729v-.121Zm0,.727v.121h.244v-.121Zm.121-8.86v.244h.242Zm.121,6.311v.121H99.2v-.121Zm.121-7.889.244.242h.365l-.242-.242Zm0,.729.121.365h.486v-.244Zm0,8.373v.121l.485.121c0-.161-.121-.242-.365-.242Zm0,.971v.244h.244v-.244Zm.123-6.8v.121h.486v-.121Zm.121-2.792v.121h.365l.123-.121.121.365h.244l.244-.242v-.121l-.606-.121Zm0,3.64v.121h.244v-.121Zm0,1.942v.244h.606v-.121Zm.121-4.853v.242h.486v-.242Zm0,2.548v.121l.242.242h.244V111.6l-.121.121-.123-.121h-.242Zm0,2.911v.121h.242v-.121Zm.123,2.065a1.024,1.024,0,0,0,.85.606l.244-.365c-.324,0-.485-.121-.485-.365Zm0,1.334.121.121v.121l-.121.121v.121h.486l.121-.365-.121-.121h-.486Zm.121-7.766v.121h.244v-.121Zm0,5.947.244.244.123-.121V116.1h-.366Zm.121-7.282v.121h.244v-.121Zm0,8.86v.121h.727c0,.163.2.244.606.244v.244h-.727v.121q1.456,0,1.456.244l.85-.121V118.4l-.486-.121-.606.121v-.121l.121-.121v-.121c-.4-.04-.606-.161-.606-.365H99.807Zm.121-11.773v.121h.365V105.9Zm0,1.942v.242h.485v-.121Zm0,12.865v.121h.606l-.121-.121v-.121Zm.244-13.957v.121h.486v-.121Zm.121,7.282v.121h.244v-.121Zm.485,1.577c0,.161.121.242.365.242,0,.121-.284.284-.85.486l.365.365c0-.323.282-.485.848-.485a1.09,1.09,0,0,0-.606-.606Zm-.485,4v.244h.244v.244l-.121.121v.121l.606.121,1.334-.365.729.242.606-.121V120.1H102.6v-.244h.85v-.121h-1.7v.244H101.5v-.244h-.242l.121.121v.121h-.365C101.021,119.736,100.778,119.615,100.292,119.615Zm.121-9.466.121.121-.121.121v.121l.121.121v.121l-.121.121h.727c.425,0,.667-.121.729-.365l-.606.121h-.121c-.323-.141-.486-.3-.486-.485h-.244Zm0,.971v.242h.121v-.242Zm0,.486v.121h.365v-.121Zm0,3.034v.121h.365v-.121Zm.121-7.647v.121h.365v-.121Zm0,.365.244.244v-.244Zm.365.971v.121l.121.121v.121c-.181,0-.3.2-.365.606l.485-.121-.121-.121v-.121c0-.323.4-.486,1.213-.486l.121-.121v-.121l-.485.121-.486-.121Zm-.242,1.577h.486l-.244-.244Zm0,1.215v.121h.365v-.121Zm0,.971v.121h.242v-.121Zm.121-6.19v.121h.244V105.9Zm.244,7.161-.244.242v.121l.486.244.121-.121h.121l.608.121V113.3h-.85v-.242ZM100.778,115v.121h.244V115Zm.244-5.584v.121h.244v-.121Zm0,11.166v.242h.606v-.121Zm.121-14.928v.121h.244v-.121Zm.121,5.461-.121.121v.121l.606.121v-.244Zm-.121,3.034c0,.161.4.324,1.213.486V114.4Zm.121-6.553v.244l.85.121.365-.121V107.6h-.121l-.365.121c0-.161-.121-.244-.365-.244Zm.121,1.213-.121.365.485.121h.244v-.121h-.365v-.244h.244v-.121Zm0,.85-.121.486c.161,0,.242-.121.242-.365v-.121Zm.121-4.734v.121h.244v-.121Zm0,2.063v.244h.123l.244-.244Zm0,3.157v.121h.365v-.121Zm0,2.3.244.242v-.242Zm0,4v.244h.123v-.244Zm.123-.971v.242h.121v-.242Zm.121,5.219v.121h.85v-.244Zm.971-16.991-.123.121-.244.244h-.121v-.244h-.244l-.121.365.85.121V104.2l-.123-.121v-.121a1.256,1.256,0,0,1,.85-.244V103.6Zm-.85,12.136v.121h.244v-.121Zm0,.365v.121c.222,0,.425.161.606.485l.606-.121v-.121h-.606v-.242h.485V116.1Zm0,5.947v.121h1.577v-.121Zm.121-17.6v.242l.365-.121v-.121Zm0,1.577v.121h.729v-.121Zm0,.848v.121h.244v-.121Zm0,14.807v.121h.244V121.8Zm.123-11.286v.121l.848.244.123-.121v-.121l-.123-.121h-.848Zm0,1.092c0,.181.365.3,1.092.365v-.121l-.244-.485A1.254,1.254,0,0,1,102.113,111.605Zm0,.363v.121l.242.244.486-.121v-.121Zm0,3.036v.121h.365V115Zm0,.606v.121h.365v-.121Zm0,4.732v.121h.242v-.121Zm.121-16.87v.121h.244v-.121Zm.486,6.311c0,.242-.163.365-.486.365v.121h.727l-.121-.121.121-.121v-.242h-.242Zm-.365-4v.121l.606.121h.123V105.9l-.606-.121Zm0,3.4v.121h.365v-.121Zm0,4.369.121.365.85-.242-.123-.365C102.639,113.3,102.355,113.384,102.355,113.547Zm0,7.524.365.486h.121l-.121-.121v-.244l.365.121h.244v-.121l-.606-.121v.121l-.123-.121Zm.123-12.258v.121h.365v-.121Zm.121-3.519v.242h.123l.242-.242Zm0,3.034v.244l.365.121.123-.121v-.244Zm0,5.947v.121h.606v-.121Zm0,3.4v.121h.971v-.121Zm0,4.126v.121h.486V121.8Zm0,1.336v.121h.486v-.121Zm.121-15.292v.242h.365l-.123-.121v-.121l.123-.121V107.6h-.123Zm0,14.928v.121h.485v-.121Zm.121-7.645v.121l.365.121v-.121l-.121-.121Zm0,1.819v.121h.365v-.121Zm.244-11.529v.121h.244v-.121Zm0,10.316v.121h.606v-.121Zm0,.365v.121l.606.485h.242v-.244l-.244-.485Zm0,2.184v.242l.244-.242Zm.363,2.184c0,.161-.121.244-.365.244v.242a1.378,1.378,0,0,1,.971.365.322.322,0,0,1,.365-.365c0-.161-.244-.242-.727-.242v-.244Zm-.242-15.9v.121h.85v-.121l-.486-.121Zm0,13.471v.121h.365v-.121Zm.121-11.166v.244h.121v-.244Zm.121,1.456-.121.606h.242l.123-.606Zm-.121.729v.121h.242v-.121Zm0,12.621v.244c.161,0,.242.121.242.365h1.213l.123.121.485-.121v-.121h-.365l-.121.121-.244-.242h-.121l-.606.121c-.121-.323-.244-.486-.365-.486h-.242Zm0,1.7.242.242h.123l-.244-.242Zm.242-15.655v.244l.365-.121v-.121h-.365Zm0,11.408v.486h.123c.323-.121.485-.242.485-.365v-.121Zm0,3.761v.121h.244v-.121Zm.123-5.218v.121h.85v-.121Zm0,5.461v.121h.365v-.121Zm.121-17.234v.121h.244V105.9Zm0,12.137v.121h.486v-.121Zm0,5.46v.121h.365V123.5Zm.121-1.819.121.121v.121l.606-.121h.244l.121.121h.123v-.244h-1.215Zm.123-16.263v.121h.244v-.121Zm0,6.918.244.242v-.242Zm.121-.606v.121h.244v-.121Zm0,6.553v.242h.244Zm0,.606c.161.425.365.667.606.727l.365-.121-.244-.486.121-.121h-.365v.242h-.121v-.242Zm.121-15.17v.121h.244v-.121Zm0,16.384v.121h.365V120.1Zm0,.971v.244h.365l-.244-.244Zm.121,2.669-.121.365h.244v-.365Zm0-5.7v.121h.365v-.121Zm0,5.1v.244h.729v-.121Zm.123-18.568v.121h.242v-.121Zm3.276-.365v.244l.121-.121h.365v.244q-1.85,0-2.79,2.307a3.328,3.328,0,0,1-.606,1.456h.121l-.121.121.121.606q0,1.091-.365,1.092v.121l.121.121v.121h-.121l.244.486-.123.121h-.121l.485,4.855H104.9v.365l.606-.121v.121l-.244.242.121.365.121-.121h.121a20.32,20.32,0,0,0,4.613,4.732l.244-.242v.121l-.123.121v.121a3.117,3.117,0,0,0,1.456.85h.121q0-.365.971-1.092,0-.607.486-.606l-.244-.244-.365.121.485-.485.365.121v-.121l-.121-.486.121-.121h.121l-.121-.121v-.121c.1-.4.222-.606.365-.606l-.121-.121v-.121a.643.643,0,0,1,.727-.727c0-.161-.161-.242-.486-.242l-.123-.121v-.121l.365-.121A2.042,2.042,0,0,1,114,116.1l.365-1.821-.123-.121v-.121l.123-.121V113.8L114,111h-.121v.486h-.244v-.365l.121-.121-.486-2.307.121-.365q-.3,0-1.334-1.7l-1.821-1.456v.242q.272,0,1.092,1.092v.121h-.121q-1.943-2.185-2.79-2.184v-.121l.121-.121-.365-.121Zm-3.155,14.2v.121h.244V118.4Zm0,5.1v.244h.244V123.5Zm.121-3.64.123.121v.121l-.123.121h.606l-.121-.365h-.486Zm.121.85-.123.121v.121h.365Zm-.121,2.184v.121l.365.121v-.244h-.365Zm.365-5.824v.121a27.847,27.847,0,0,0,2.184,3.64l1.334,1.092h.729L110,121.8q-3.883-3.427-3.884-4H106v.244c-.143-.02-.344-.344-.608-.971Zm0,4.126v.121h.242v-.121Zm.242,1.7v.121l.121.365h.121v-.121l-.121-.365Zm0,.606v.121a.322.322,0,0,1,.365.365H106l.242-.244-.365-.244h-.486Zm.123-1.334v.242h.244Zm.121-2.669v.121l.123.365H106l-.121-.485Zm0,1.7v.121h.244v-.121Zm0,1.336v.121h.244v-.121Zm0,1.819v.121h.244v-.121Zm.365-.121.242.244v-.244Zm.121-21.36v.121h.244v-.121Zm0,17.962v.242h.121v-.242Zm0,1.336.244.242h.121l-.244-.242Zm.121,1.334v.121h.365V123.5Zm.121-3.155a5.468,5.468,0,0,0,1.942,2.063v-.121l-1.821-1.942Zm0,.729v.244q.728,1.577,1.942,1.577h.123v-.121q-1.761-1-1.942-1.7Zm.121,3.155v.121h.244v-.121Zm.244-20.146-.121.121v.121h.365Zm0,15.049h.121v.244h-.121Zm.121,5.1.244.244h.85v-.121l-.485-.121-.121.121h-.121Zm.123-4.732h.121v.242h-.121Zm.484.606h.123v.242h-.123Zm0,3.519.365.365h.121v-.121l-.244-.244Zm.606.85v.121h.244v-.121Zm.123-.973v.121h.244V123.5Zm.365-.484v.121h.244v-.121Zm.121-19.176v.244a10.147,10.147,0,0,1,3.642,2.548l.727.85v-.121q-.97-2.669-2.427-2.669l-.121-.121v-.121h.485q0-.365-1.456-.727Zm.971,18.326h-.606l-.123.365v.121h.123v-.244h.242v.485l.85-.727h.365l-.123-.121v-.121Zm-.365,1.821h.606l-.242-.244h-.123Zm.242-21.118-.121.121v.121h1.213v-.121Zm0-.486v.121h.365v-.121Zm.244,1.942h.606v.121l-.606.121Zm.121,18.447v.121h.244v.121l1.092-.242v-.244l-.727-.244C110.123,122.448,109.92,122.609,109.879,122.77Zm.365,1.336v.121l.486.121h.121v-.121l-.485-.121Zm.365-21.967-.121.121v.121l2.3.365.244-.244h.121l.971.365.606-.121v-.121l-.365-.121-.123.121h-.121l-1.336-.365-.365.121-.365-.242-.85.121h-.365l-.121-.121Zm.121,21.6v.121h.244v-.121Zm.242-2.184h.123v.244h-.123Zm.729-2.427v.365l-.486.727h-.121C111.376,119.494,111.579,119.13,111.7,119.13Zm.606.606v.121q0,.517-.971,1.456h-.121v-.121Zm-.971,3.278v.121h.606v-.121Zm.123-16.263.365.365v.121H111.7l-.244-.244Zm.242-2.913v.121l.606.121h.121v-.244H111.7Zm.242,17.476h.123l-.244.242H111.7Zm-.121-17.962v.121h.244v-.121Zm0,.971v.121l.365.244h.121C112.307,104.567,112.146,104.444,111.821,104.323Zm0,3.034h.121l.244.244v.244l-.365-.365Zm.244,11.044h.121l-.365.485v-.242Zm0,3.278h.121l-.244.244h-.121Zm-.244,2.548v.121h.365v-.121Zm2.063-2.063v.242h-1.821v.121q1.819.091,1.821.244l1.092-.121c0-.161-.2-.244-.606-.244v-.242Zm-1.7-14.321h.121v.242h-.121Zm.242,9.71h.121l-.121.365h-.244V117.8Zm-.242,6.189v.121h.365v-.121Zm.121-15.655q.212,0,.848,1.577l-.121.121h-.121l-.606-1.336Zm1.7,8.616v.121a12.105,12.105,0,0,1-1.577,2.913h-.121v-.121a14.3,14.3,0,0,0,1.334-2.79l.121-.121h.244Zm-1.7,6.311v.121l.727.121h.121v-.121l-.606-.121Zm.121-17.6v.121q.758.91,1.7,4.976h.121v-.244h.244l.606.121v-.244q-.97-.091-.971-.365l.486-.365h-.486v-.242h.606v-.121l-.486-.121-.244.244v-.365c0-.161.2-.242.606-.242v-.121h-.606v-.244h.365l-.608-.485v-.244h.365A6.491,6.491,0,0,0,112.428,105.415Zm.244,11.529h.121l-.244.242h-.121Zm0,3.884v.242h-.244Zm-.123-17.112v.244h.85v-.121Zm.244,20.51v.121h.244v.121l.365-.121v-.121Zm.123-21.36v.121h.365v.121l-.123.121v.121l1.092.242.123-.121h.121l.85.242c0-.181-.284-.3-.85-.365l-.121.121h-.123l-.85-.244.123-.121v-.121l-.244-.242Zm.121,12.5h.244l-.123.727h-.242v-.121Zm-.121,8.374v.121h.242v-.121Zm.121-13.715.121.121q.184,0,.486,1.577l.121.121.123.365h.121l-.244,2.063v.121l-.242.242-.123-.121.123-.85v-.606l-.123-.85.244-.244Q113.307,111.97,113.036,110.026Zm0,11.531v.121h.244v-.121Zm0,.363v.244h.485v-.244l-.123.121h-.121l-.123-.121Zm.242-6.068h.121v.85h-.244Zm0,7.161v.121h.606v-.121Zm.121-8.253.244.244v.365l-.244-.244Zm0,8.981v.121h.729v-.121Zm.123-19.783v.121h.242v-.121Zm.121,1.456v.121h.971v-.121Zm0,16.263v.244h.121v-.244Zm.971-15.9-.121.121v.121l-.121-.121h-.365v.121l.244.242h.365l-.121-.121v-.121h.244l1.213.121v.244h-.244v.121l1.456.121c0-.161-.244-.244-.729-.244v-.121l.121-.121v-.121l-1.213-.121h-.485l-.121-.121Zm-.486,4.855v.121h.365v-.121Zm.121,5.461v.121h.244V116.1Zm0,2.911v.244h.123v-.244Zm.121-3.276.121.121v.121l.121-.121h.123l.365.121v-.244h-.729Zm.123-9.224v.121h.244v-.121Zm0,5.461v.121h.244v-.121Zm.242-5.218-.123.365h.244v.121l-.121.121v.121l.121.121h.121l.365-.365.121.121.971-.121,1.213.121.123-.121v-.121l-1.092-.121-1.092.121-.729-.365h-.121Zm-.121,3.884v.121h.486v-.121Zm0,2.548v.485h.123v-.485Zm0,8.374.244.244.121-.121h.121l.121.121v.121l.365-.121v-.121c0-.161-.121-.242-.365-.242Zm0,1.819v.121h.365v-.121Zm.121-17.962.244.244h.121l-.244-.244Zm.121-2.427v.121h.365v-.121Zm0,11.529h.485v-.242H115.1Zm.244-1.092-.121.486h.486l.121-.486Zm-.121,4.128v.242l.365.121.485-.121v-.121Zm.121-.729v.121h.244v-.121Zm0,2.548v.121h.244v-.121Zm.121-11.65v.244h.123v-.244Zm.606,14.442c0,.161-.2.242-.606.242l.244.244.85-.365v-.121Zm-.485-16.749v.121h.244v-.121Zm0,6.311v.242h.244Zm0,.727v.121h.244v-.121Zm.121-8.981v.242h.485v-.121Zm0,4.855v.121h.244v-.121Zm0,8.131v.121h.244v-.121Zm.123.365-.121.365h.244v.121l.121-.121h.123l.121.121h.123l.971-.365v-.121h-.85v.242h-.244v-.242Zm0-12.742v.121h.365v-.121Zm0,3.882.486.365a2.672,2.672,0,0,1,1.456-.365l-.244-.244h-.727l-.485.365h-.121v-.121l.121-.365h-.121Zm0,1.215v.121h.486v-.121Zm.242,4.247-.242.244v.242h.486v-.121l-.121-.121v-.121l.121-.121h-.244Zm-.242.85v.121h.242v-.121Zm0,.242v.244h.121v-.244Zm0,8.86v.242l.606-.121v-.121Zm.242-13.713v.121h.365v-.121Zm0,11.894v.244l.729-.121v-.121h-.729Zm.123-6.191v.121h.244v-.121Zm.121-4.732v.121l1.092.244-.244-.486Zm0,3.882v.244h.485v-.121Zm.121-5.46v.121h.486v.242h-.365q0,.456,1.821.85v-.121c0-.161-.163-.242-.485-.242v-.244l-.606.121v-.244c.323,0,.486-.081.486-.244h.365q0,.365.729.365l.121-.121h.123l.365.121-.244-.244h-.85v-.242h-.121l-1.577-.121h-.245Zm2.063,4.126v.244l.608-.121c.566.081.848.2.848.365l-1.092.121-.365-.121q-.849,0-.848.242l-.365-.121h-.848v.121h.727v.121l-.121.121v.121l.242.242-.121.121h.244c0-.242.081-.365.244-.365h.121v.242h-.244v.121h.244l.121-.121h.123l.485.244v-.121l-.121-.121V114.4l.729-.121v-.121h-1.092v-.244h1.7v.121l-.123.365h.123l.485.242h.244l.121-.485-.121-.365.121-.121q-.728,0-.727-.485h-1.342Zm-2.063,4.369v.242h.242Zm0,1.942v.121h.365v-.121Zm.121-6.311v.244l.121.121v.121l.606-.121Q117.039,113.3,116.312,113.183Zm0,6.918.244.242.365-.121V120.1Zm.85,3.884v.242l-.729.121C116.515,124.106,116.757,123.985,117.162,123.985Zm-.485-20.026-.121.365.727.244v.121l.485-.121c0-.161-.2-.244-.606-.244l-.365-.365Zm.121,5.582v.244h-.244ZM116.555,115v.121h.244V115Zm0,.727.244.244h.121l-.244-.244Zm0,2.063.244.244.606-.121V117.8h-.85Zm0,1.336v.121h.485v-.121Zm.121-16.263v.121h.365v-.121Zm0,11.894v.121h.244v-.121Zm0,1.456v.121h.365v-.121Zm0,5.1v.242h.123l.242-.242Zm.121-1.819v.121h.365v-.121Zm0,1.334v.121h1.213v-.121Zm.121-14.928v.121l.606.242.606-.121-.244-.242Zm0,12.744.244.244h.365l-.244-.244Zm0,3.761v.244h.727l-.242-.365.121-.121H117.4Zm.121-10.923v.121h.244v-.121Zm0,.486v.121l.606.121h.729v-.121l-1.213-.121Zm.123-8.981q0,.244,1.092.606h.123v-.121Zm0,9.466v.121h.244v-.121Zm0,2.307v.121h.244v-.121Zm.121,6.674-.121.121v.121h.365Zm0-13.349v.244h.244Zm0,4.976v.242h.123v-.242Zm0,4v.121l.365.121h.123v-.121l-.365-.121Zm0,7.16h.244v.121h-.244Zm.123-10.8v.121h.242v-.121Zm0,3.4v.121h.365v-.121Zm.363,2.792v.121l.121-.121h.365c0,.183-.284.344-.848.485v.242h.242l.244-.242.123.121h.242c.02-.323.264-.486.729-.486l-.729-.727Zm-.363-.486v.121h.365v-.121Zm.121-8.253V111h.244v-.121Zm.969,12.5v.121l-.85.606h-.121v-.365Zm-.848-15.655v.244h.606l-.242-.244Zm0,.727v.121h.123l.244-.244.121.121h.244l-.244-.244h-.244Zm.121-2.063v.121h.727v-.121Zm.121,8.618v.121h.365V115Zm.123-9.831v.121h.486v-.121Zm.121,1.942v.121c.323,0,.486.081.486.242l.121-.121h.123l.365.244h.121v-.121l-.365-.365Zm.121,3.519-.121.485.606.121h.123v-.121l-.123-.365h.365v-.121Zm0-.729.365.365h.365l.244-.244Zm0,1.7v.121h.244v-.121Zm.121-7.282.365.365h.123l-.365-.365Zm0,1.092v.121h.365v-.121Zm0,7.039v.121h.606v-.121Zm0,3.034v.121l.606.365h.121q-.06-.242-.606-.486Zm.121-7.039.121.365h.121v-.365Zm0,.608v.242l.244-.242Zm0,3.034v.121h.606v-.121Zm.244,10.558.123.121v.121l-.123.121H118.5v-.121Zm-.121-14.807v.121h.244v-.121Zm0,10.8v.121h.365v-.121Zm0,2.184v.242h.121l.606-.121v-.121Zm.121-14.928v.121h.244V105.9Zm.123,8.616v.244h.121v-.244Zm0,.365V115h.242v-.121Zm.121-6.918v.121h.244v-.121Zm0,3.642v.121h.606v-.121Zm.969,9.708h.123v.121l-.971.727h-.121v-.121Q118.983,121.86,119.952,121.314Zm-.848-16.505v.121l.244.244v.121l-.121.121v.121c.4,0,.606.081.606.244v.121h-.244l.121.121v.121l.123-.121h.365l.244.727H120.2v.485l.244.242h.121l.121-.121c.323.121.485.244.485.365v.121h-.606v.121h.729v.242h-.485v.244c.647.2.971.365.971.486l-.486.121v.121c.4.02.606.141.606.365-.244,0-.365.081-.365.244l-.121-.121h-.244c0,.161.161.244.486.244,0,.242.081.365.244.365v-.244h.242v.121l-.242.365c.323,0,.486.284.486.85l-.486.244c.4.324.606.606.606.85l-.244.242c.161,0,.244.121.244.365l-.244.727h.121q.456,0,.729-3.519l-.123-.365.123-.121a8.034,8.034,0,0,1-.971-2.184A8.271,8.271,0,0,0,119.1,104.808Zm0,3.4v.244h.121l.121-.121h.123l.365.121v-.121l-.123-.365h-.121Zm.121-.486v.121h.244v-.121Zm.244,3.034-.244.244v.121l.365.121.244-.365-.123-.121Zm-.244,5.218v.121h.244v-.121Zm.121-9.466v.242h.123v-.242Zm0,2.065.244.242h.121l-.242-.242Zm0,4v.121h.606v-.121Zm0,6.068v.121h.485v-.121Zm0,1.456v.121h.244V120.1Zm.123-10.56v.121l.606.121h.365v-.244l-.606-.121Zm.242-.484.244.242.123-.121v-.121Zm0,3.155v.121h.244v-.121Zm0,2.792v.121h.244V115Zm.121,4.49v.121h.244v-.121Zm.121-9.468.365.365h.244l-.121-.365Zm.123,3.036v.121h.242v-.121Zm0,4.976h.242v-.244Zm.365-11.287h.244v.244Zm.363,6.8v.244l.121.365-.242.244v.242l.121.365h-.244v.486l1.092-.121v-.121l-.365-.121-.365.121v-.242l.729-.244v-.121l-.123-.121V114.4l.244-.244v-.121a.322.322,0,0,1-.365-.365h-.121l-.121.121h-.121Zm-.121,7.4h.121v.244h-.121Zm.365-9.708v.244h.244v-.244Zm0,4.732v.121h.244v-.121Zm.121-3.4v.121l.365-.365h-.121Zm.121.606v.121h.606v-.121Zm.365-2.548.244.244h.121l-.244-.244Zm.606,8.5v.244h.121v-.244Zm1.942-5.705-.242.606.121.121v.121l-.365,1.213.121.121v.121l-.727,2.063h.121q.212,0,.971-2.184l-.121-.121h-.121c.141-.4.344-.606.606-.606v-.365l.242-.85-.365-.244H124.2Zm0-.606-.121.121v.121l.121.121h.123l.121-.121h.123l.121.121.244-.365h-.244l-.365.121Zm.242-.85v.244l.244.244h.121l.123-.365-.123-.121h-.365Z" transform="translate(-81.087 -85.481)"/><path class="a" d="M288.641,92.92h.244v2.548c.081.242.323.365.729.365l.606-.121v.121l.121-.121.85.121H294.1q0,.486.606.486h.485v.121l-.121.121v.121l-.606-.121h-.121l-1.213.121V96.56c-.566.181-.848.344-.848.485.323,0,.485.081.485.244V97.9l-.606-.121h-.121q0,.517-2.792.85v.121c.323,0,.486.081.486.242v.365q-.4.849-.727.85l.242.244-.365,1.336.123.485-.123.365.244.242v.606l-.244.365.244.242v.121l-.121.121.121.121v1.7l.121.485-.242.85a2.923,2.923,0,0,1,.242,1.336v.244l-.121.121.121.121v.121l-.121.121.121.121-.121.606v1.456h-.244l.244.365-.121.121.121.121v.121l-.244.485.123.121v.121l-.123.365q.3,0,.365,1.577l-.121.121.121.121h-.365v.121h.365l.123-.121q0,.728,3.155,1.092v.121l-.121.121h-1.457l-.244.242h1.457l.365.365-.365.121v.121c.244,0,.365.081.365.244l-.121.121v.091l-.85-.091h-.85v-.244h-.121l-.606.334h-.244l-.121-.091-.123.091h-.244l-.121-.091h-.121v.455h-.244v-.365h-.485v.85h-.244v-.121l.123-.121c0-.2-.244-.435-.729-.7l-.121.091h-.121l-.123-.091-.606.091h-3.64l-.123.121-.121-.121h-.485l-.242.606v.121l.486.486.123-.85h.242v.365l-.242.727.242.242v.121H281.12q-1.577-1.275-1.577-1.821h-.727v-.091l.121-.121v-.121h-.365v.334h-.729l-.244-.212v-.244l.121-.727-.121-.365,1.942-.242c.2.4.445.606.727.606l-.486-.606,1.456-.606.121-4.49-.244-.727.121-1.336-.121-.727.365-.365.244-3.64-.121-.121v-.121l.365-2.669c-.244,0-.526-.282-.85-.85l-.244-.244.123-.365h-.123l-.485.121h-.123l-.486-.244v-.244h.121l.123.121h.121v-.121l-.244-.242c-.244,0-.365.161-.365.485h-.121a1.177,1.177,0,0,0-.85-.485V99.1h.606V98.86h-.729l-.244.244h.123q-.365,4.369-2.307,5.219h-.244l.123-.121v-.242h-.123q0,.363-1.942.365v.121h1.092v.247h-.485v.121l.971.121.486-.121q-.06.365-.971.365h-.244l-.123-.121-.121.121h-.121l-.121-.121h-.121l-.729.121h-.121v-.244h1.092v-.242h-.242l-.123.121-.606-.121v-.121l.123-.121v-.121h-.123l-.365.121-1.213-.971a.322.322,0,0,0-.365-.365l-.123-.121v-.121l.123-.121c-.324,0-.485-.081-.485-.242l.123-.121v-.121c-.244,0-.365-.081-.365-.242v-.121l.123-.121v-.121q-.4,0-.606-1.942l-.123.121h-.121l.121.121v.727h-.121l-.123-.121H269.7v.242h-.244v-.365q0-2.487,3.519-4.611a7.129,7.129,0,0,0,2.063-.365l.365.365h.123l.485-.121.365.121.121-.121h.121l.971.244V96.2h-.242l.121.121v.121l.121-.121h.121l1.213.365v.242h-.606l.244.244.727-.121,2.548,2.184.242-.365-.242-.242V97.9l.242-.365-.242-.244.242-.244h.123l.121.121h.123v-.244c-.4,0-.606-.081-.606-.242h.121l-.244-.727a2.267,2.267,0,0,0,1.213-.486c.161,0,.244.121.244.365h4.976v-.365h.244v.242h.121Zm-19.054,7.161v.121h.242v-.121Zm.608.971v.244c-.163,0-.244.161-.244.485l-.244-.244v-.365Zm0,.606h.121l.729,1.942a2.8,2.8,0,0,1-.971-1.7h-.121Zm.848-3.155c0,.244-.163.365-.485.365v.244h.244c.244,0,.365-.161.365-.486v-.121h-.123Zm-.242,2.669v.121c.161,0,.244.161.244.485h.486v-.244c-.244,0-.365-.081-.365-.242l.121-.121Zm.121-.486v.121h.244v-.121Zm.121,2.913.606.606h-.123l-.485-.485V103.6Zm.486-3.884v.244h.123l.242-.244Zm.123,1.336v.244l.606-.121v-.121h-.606Zm0,.363.242.244v-.244Zm.121,1.336v.121h.486v-.121Zm.606-1.336c0,.163-.121.244-.365.244l.121.121v.121l.606-.121.123.121h.121l.85-.244v-.121l-.365-.121-.365.121Zm-.365.729v.121h.365v-.121Zm.606-2.548v.244H272.5l-.365-.121v.244l.606.121.485-.244.486.121.123-.121v-.121Zm-.486.606.123.121v.121l.848-.121V100.2Zm0,2.913v.121h.365v-.121Zm.244-.485v.121l.606.121.365-.121v-.121Zm.365.485v.121h.486v-.121Zm0,1.7h.244v.244h-.244Zm.242-6.068v.121h.244v-.121Zm0,5.22h.365c.141,0,.3-.244.486-.727h.606v-.121l-.606-.121C273.268,103.277,272.986,103.6,272.986,103.965Zm.244-6.07-.123.121v.121h.123l.365-.121V97.9Zm-.123,3.157v.121h.244v-.121Zm.365-.85v.121h.607V100.2Zm.121-2.548v.121h.244v-.121Zm.121-1.336v.121h.244v-.121Zm0,1.577v.121h.486V97.9Zm0,4.734v.121l.729.121.606-.121v-.121Zm.244-3.519v.244l.486-.121v-.121h-.486Zm.121,2.3-.123.121v.244l.123-.121h.121l.606.121v-.244Zm0-4.368v.121h.242v-.121Zm0,4v.121h.365v-.121Zm0,2.913v.121h.242v-.121Zm.244-4v.121l.485.242.244-.242v-.244Zm.848-3.036.244.485a1.732,1.732,0,0,1-.971.242v.121c.04.161.244.324.606.486l.365-.365h.486l.85.606.365-.121c0-.161-.2-.242-.606-.242v-.244c.323,0,.486-.081.486-.244l-.971-.485-.244.244c-.2,0-.323-.161-.365-.486h-.244Zm-.606,1.579v.121l.606.121.365-.121v-.244Zm0,3.519v.121h.244v-.121Zm.123-5.826v.121h.244V96.2Zm0,7.768v.121h.365v-.121Zm.121-3.036v.121h.244v-.121Zm0,2.186v.242l.606-.121v-.121Zm.121-4.128v.121h.727v-.121Zm0,2.55.242.244h.606l.244-.244Zm0,.485v.121l.486.121.123-.121v-.121Zm.242-2.186v.121h.244c0,.242.081.365.244.365l.85-.121.244.244h.727v-.485l-.606.121H275.78v-.244c.244,0,.365-.081.365-.244h-.123Zm.244.85.244.242v-.242Zm.121,1.942v.242l.242-.242Zm.244-3.4h.123l.121-.121.85.121h.365l.244-.244h-1.456Zm.121,1.456-.123.121v.121h.123l.365-.121v-.121Zm.485,3.763h.121l-.244.242h-.121Zm-.121-7.768V96.8l.365.121V96.8l-.121-.121Zm0,2.913v.121h.365V99.6Zm0,2.184v.244h.244v-.244Zm0,.85v.121h.244v-.121Zm0,.485v.121h.244v-.121Zm.363.85h.244v.121h-.244Zm.971-.487v.121l-.727.727h-.121Zm-.606-7.4v.242h.121v-.242Zm0,3.4v.121h.486v-.121Zm0,1.215v.121l.244.244.244-.244v-.121l-.121.121h-.123l-.121-.121Zm.729-.727v.242h.121v-.242Zm.121,17.354v.121h.365v-.121Zm.121-.365v.121h1.456v-.121Zm.242-18.931.244.486h.486v-.121l-.606-.365Zm.123,19.3v.121h.244v-.121Zm.242-15.655h.244v.244h-.244Zm.608-.971v.121l-.121.606h-.242Q278.932,100.687,279.177,100.688Zm-.244,16.626v.121h.365v-.121Zm.244-17.233h.244v.242h-.244Zm.121-.971h1.092v-.244h-.85Zm.486,17.962.121.485h.123v-.485Zm.727.85v.212l-.606-.121h-.121v.121c.486.486.727.808.727.971h.244q0-.849-.244-.85l.123-.121v-.212Zm-.242-1.7v.242h.123v-.242Zm.121.727v.121h.244v-.121Zm.365-3.64H281v.485h-.244Zm.121-.971h.244v.242h-.244Zm0,4.128v.365H281v-.365Zm0,2.518v.121h.244v-.121Zm.121-7.859h.244v.365H281Zm0,6.189v.242h.121v-.242Zm.365-16.991h.244v-.242Zm0,17.113v.365h.121v-.365Zm.121-3.521v1.092h.123l.121-.365-.121-.727Zm0,1.579v.242h.123v-.242Zm.123-16.142v.365h.121l.486-.365Zm.121,7.889-.121.971.121.121v.121l-.121.121.121.606v.244l-.121.121.121.365-.121.121v.121l.121.365h.121v-.242h.121l-.121-.121v-.606h.365V109.3c-.244,0-.365-.081-.365-.242v-.121l.242-.365-.242-.242v-.244c0-.161.121-.242.365-.242v-.365l-.244-.244-.121.121Zm-.121,5.34v.486h.121v-.486Zm.363-12.5-.121.121v.121h.365Zm-.121.486v.121h.242v-.121Zm0,11.165v.244h.242v-.244Zm0,.971v.121h.242V112.7Zm.121-12.865v.121h.244v-.121Zm0,6.676v.242h.121v-.242Zm.121,7.281v.244h.123v-.244Zm.244,3.4v.244h.244v-.244Zm.121-5.461v.244h.121v-.244Zm0,2.063v.244h.242v.121h-.242v.121h.485l-.121-.121v-.121l.244-.244Zm.121-5.218v.121h.244v-.121Zm0,.485v.121h.244v-.121Zm0,.971v.121h.244v-.121Zm0,3.276v.121h.244v-.121Zm.121-16.384v.365h.123l.121-.365Zm0,9.589v.242h.123l.244-.242Zm0,.971h.365v-.244h-.123Zm0,7.16v.121h.244v-.121Zm.244-9.71-.121.485h.365V105.3l-.121-.121v-.121l.121-.121h-.244Zm-.121,7.524v.244h.244Zm.121-8.131v.244h.123v-.244Zm0,6.918v.121h.244v-.121Zm.121-1.942v.365h.121V109.3Zm.123-10.316v.121h.244v-.121Zm3.519,14.807v.121h.244v.244h-.486l-.486-.365h-2.79v.121h.85v.121l-.121.121v.121h.486l-.121-.121v-.244h.121l1.213.244.244-.244c0,.244.244.486.727.727l1.215-.727v-.121l-.606-.121Zm-3.519.365v.121h.365v-.121Zm0,.486.244.244v-.244Zm.121-17.72v.244h.121v-.244Zm0,14.807v.121l.606.121.121-.121h3.884v-.121Zm0,.365v.121h.485V112.1Zm0,.606v.121h.365V112.7Zm0,4.611v.121h.365v-.121Zm.121-10.8v.121l.486.121.486-.121v-.121Zm0,1.213v.242h.244v-.242Zm0,3.64v.121h1.092v-.121l-.729-.121Zm.121-6.8v.121h.486v-.121Zm0,.363.123.121-.123.121v.365c.729-.1,1.092-.222,1.092-.365h-.85v-.244h-.242Zm0,4.855h.365v-.242h-.121Zm0,5.1v.121h.244v-.121Zm0,.606v.121h.365v-.121Zm.123-18.57v.121h.971v-.121l-.606-.121Zm1.092,4.49h-1.092v.244l.85.121.121-.121.365.365h.123c.04-.323.161-.485.365-.485l.121.121.123-.121H287.8v-.121l-.606-.121-.365.121-.365-.121Zm-1.092,9.224.365.365.486-.121V111l.121-.121h.244L285,111l.729-.244.121.121h.121l.365-.121.606.121.606-.244v.121l.365-.121v-.121h-.365l-.729.121v-.121l-.121.121-.606-.121Zm0,2.669v.121h.244v-.121Zm.121-10.8v.121l.486.121.121-.121h.244v.242h.121l.365-.121v-.242l-.606-.244H284.4Zm0,4.976v.121h.244v-.121Zm.121,1.092v.121h.242v-.121Zm0,1.456v.121h.242v-.121Zm0,5.7v.121h.848v-.121ZM284.03,98.5v.244h.365l-.244-.244Zm0,1.213.244.244h.121v-.244Zm0,.606.244.244v-.244Zm0,7.4v.242h.121v-.242Zm0,4.732v.121h.244v-.121Zm0,4.007v.121h.485v-.121Zm.244-2.065-.123.365h.729c0-.161.121-.244.365-.244V114.4Zm-.123,2.671v.121h.244v-.121Zm.123-11.044v.121h.244v-.121Zm0,4.247v.121h.486v-.121Zm0,1.821v.121h.606V112.1Zm.242-12.744v.121h.242v-.121Zm0,3.884v.121h.242v-.121Zm0,1.336v.121h.242v-.121Zm.123-5.947v.242h.121l.606-.121v-.121Zm0,7.4v.121h.244v-.121Zm0,11.65v.121h.244v-.121Zm.121-20.754v.121h.485v-.121Zm0,.485v.121l.365.121.121-.121V97.41Zm2.063,7.4v.121h.244v.244h-2.307v.242c.323,0,.485.081.485.244a3.285,3.285,0,0,1,1.577-.365l.123.121h.121l.485-.121.121.121h.123l.365-.121v-.121h-.85v-.121l.121-.121v-.121h-.608Zm-2.063,7.768.244.244h.123v-.244Zm0,4.611v.121l.365.121h.121v-.121l-.365-.121ZM285,100.081l-.121.121v.121l.971.121.606-.121V100.2h-1.213l-.121-.121Zm-.121,9.829v.121H285l.365-.365h-.242Zm.121,4.978.123.121v.121l-.123.121h.244l.121-.365H285Zm0,1.213v.121h.244V116.1Zm.123-5.826h.242l.606-.121-.121-.121v-.121Q285.123,110.064,285.123,110.275Zm0,5.1v.121h.242v-.121Zm.121-15.655v.121h.244v-.121Zm0,.971v.121h.244v-.121Zm0,1.821v.121l1.7.121,1.092-.121v-.121Zm0,3.519v.121h.365v-.121Zm0,6.553v.244h.121l.606-.121v-.121h-.727Zm.242-10.681-.123.121v.121l1.213.121V101.9l-.121.121h-.121Zm0-4.976v.121l1.092.121.365-.121v-.121l-.729-.121Zm.244,7.4-.244.365h.244v-.242h.727v-.121h-.727Zm-.244,6.8v.244h.121v-.244Zm.121-13.592v.242l.729-.121v-.121Zm0,10.315v.121h.365v-.121Zm0,8.01h1.213l.123-.121h.121l-.121-.365h-.365v.242h-.365l.123-.121v-.121h-.123Zm0,.365v.121h.729v-.121Zm0,.365v.121h.244v-.121Zm.123-10.073v.121h.727v-.121Zm0,4.732v.244h.242Zm0,6.553h.242v-.244Zm.121-18.568v.242h.244Zm0,13.715v.121l1.213.121.485-.121v.244h-.244v.121h.727v-.244l-.242-.242Zm.121-3.521.244.244.729-.121v-.121l-.244-.244h-.485Zm.123-10.8v.121h.606V98.5Zm0,12.621v.121h.244v-.121Zm0,2.063v.121h.486v-.121Zm.121-14.321v.121h.729v-.121Zm.121,13.594v.121h1.456v-.121Zm.121-4.126v.486h.121l1.336-.244v-.242l-.121.121h-.244l-.123-.121-.121.121h-.244Zm0,8.494v.244l.244-.244Zm.121-12.378h.123l.244-.244h-.123Zm.123-4.369v.121h.244V100.2Zm0,1.7v.121l1.334.242v-.242l-.848-.244Zm0,11.408v.121h.365v-.121Zm.242,3.763v.121h.244v-.121Zm.244-20.147-.123.485h.365v-.365h.244v.244h.123v-.244l-.123-.121Zm-.123,1.456V98.5l.365.486-.121.121.121.121h.123l.244-.244h-.244v-.121l.121-.121v-.121c-.244,0-.365-.081-.365-.244h-.244Zm0,9.224.123.121-.123.121v.242h.244c0-.242.081-.365.244-.365V107.6h-.487Zm0,1.7v.121h.485l-.123-.121v-.121Zm.123-8.616v.242h.242Zm0,5.1h.121l.244-.244h-.123Zm0,4.249v.121h.242v-.121Zm0,5.582v.365c.323-.121.486-.244.486-.365Zm.242-19.3.244.244v-.244Zm.244,10.073-.244.486h.365l.242-.244Zm-.244,3.278v.121h.244v-.121Zm0,4.732v.121h.365V114.4Zm.123-19.3h.244v.486h-.244Zm.121,2.669v.244h.244v-.485Zm.242,6.432-.244.244v.121h.244l.244-.365Zm-.242.606v.121h.486v-.121Zm.121,14.291h.365l-.244.244-.121-.121Zm.121-22.786v.244h.244v-.244Zm.121.365v.365l.123.606h.121v-.727Zm.123,17.112v.121h.244v-.121Zm.121-14.321h.365v-.242h-.121Zm0,4.249v.244h.244v-.244Zm.121-3.519v.121h.242V100.2Zm0,1.092v.242h.121v-.242Zm0,.606v.242h.121V101.9Zm0,4.613v.242h.121v-.242Zm0,2.063v.244h.121v-.244Zm0,8.373v.121h.365v-.121Zm3.277-20.387-.365-.121.123.121v.121l-.85.121H290.1a.322.322,0,0,0-.365-.365V96.8h-.85l.365.365.606-.121h1.336a.738.738,0,0,0,.727-.486h.123v-.244ZM288.885,97.9l.244.244h.244l.244-.244Zm.121,19.3v.121l.365.121v-.244h-.365Zm.244-19.66v.121h.486v-.242Zm.121,20.025v.121h.244v-.121Zm.121-.729v.121l.85.121-.244-.242Zm.365.971h.123l.244-.244H290.1Zm.486-21.36v.121h.365v-.121Zm1.213.85v.121h.971c0-.161-.121-.244-.365-.244Zm1.215-1.092v.121h.244V96.2Zm1.942-.365h.365v.121h-.365Z" transform="translate(-224.866 -78.417)"/><path class="a" d="M427.169,89.85h.121l.121.121.365-.121q2.366.547,2.548.971l-.121.121v.121h.244l.121-.121h.121a3.149,3.149,0,0,0,1.577.971v.121h-.244v.121h.121l.121-.121h.121a3.752,3.752,0,0,1,1.7,1.092v.121L433.478,93v.242c.4.06.606.183.606.365l.121-.121h.365l-.121.121v.121h.485v.242h-.121l-.727-.121h-.121v.121l.971.365.486-.121a2.564,2.564,0,0,0,.971,1.092l-.121.365.485.242v.121l-.244.244-.365-.121-.244.365v.121h.121l1.092-.365.244.606-.123.121h-.121l-.485-.121h-.121v.121c.2,0,.323.161.365.486l-.121.121h-.121l-.121-.121h-.244v.121q2.064.212,2.063,1.577l.244,1.092-.123.365.244.244-.365.365v-.365h-.365l.365.727.121-.121h.123l.121.121v.606l-.244.242-.121-.121v.244l.365.121-.121.606v.242l.244.365v1.213l-.121.121.121.121v1.336l-.485.971.121.121v.242q-3.823,7.041-8.737,7.039h-.486a4.955,4.955,0,0,1-2.548.365l-.365-.121-.121.121h-.121q-2,0-5.947-2.063a9.729,9.729,0,0,1-4.855-5.461,25.216,25.216,0,0,1-1.456-4.126l.121-.121v-.121l-.121-.486a6.92,6.92,0,0,1,.365-2.063l-.121-.365c.121,0,.282-.323.486-.971l.244.244v.486l-.244.485.123.121v.121l-.365,1.336q0,1.336.85,1.336v-.121c0-.181.161-.385.486-.606q.333,0,.729,1.7h-.244v.121h.365v.244h-.244v.121a1.131,1.131,0,0,1,.729.365v-.606q.272,0,.848,2.184l.244-.244a1.4,1.4,0,0,1-.365-.85v-.242a4.127,4.127,0,0,1,1.821,2.548l.121.121.365.242-.123.121v.244h.244l-.121-.121V108.9h.121c.729.141,1.092.3,1.092.485l-.123.121h.244v-.242h.123l1.092.606.365-.121.971.727h.365v-.121h-.485q.484-.7,3.277-1.7l.971.242c-.081-.242-.323-.365-.727-.365v-.121q.728-.97,1.213-.971l-.121-.121V107.2q.819-1.275,1.213-1.336l-.123-.365q.242-.728.85-.727v-.121l-.365-.121.365-1.092-.606-.365H429.6l.121-.121v-.242q-2.245-.758-2.307-1.092l-.121.121h-.121l-1.336-.485v.121l.123.121v.121H425.6l-.242-.242.365-.121v-.121l-.729-.242h-.242l-.365.242q0-.7-4.49-2.063c0-.161-.244-.242-.727-.242q0-.181-2.184-.727l-.606-.121-.121-.121V97.5h.121l.365.121c0-.161-.123-.244-.365-.244l-.485-.244q0-.607-1.213-.606l-.123-.121v-.244l.365-.121a5.624,5.624,0,0,1,1.821.727h.244l.365-1.213h.486l.123.121h.121l.123-.121v-.121h-.244v-.121l-.123.121h-.242v-.121q0-.728.486-.727a1.883,1.883,0,0,0,1.092.244v.121l.121-.121h.123l.727.244.485-.121v-.244h-1.213l-.365-.242h-.971a1.144,1.144,0,0,1,.606-.971q.547-1.091,1.092-1.092l.121.121v.121l.365-.121-.123-.121v-.121h.365c0,.161.2.324.606.485h.123l.121-.121,1.213.244v.121l-.121.121v.121h.365v-.242h.121l.121.121.121-.121h.123q2.064.121,2.063.365h.486v-.121c-.647-.141-.971-.3-.971-.485l-.121.121h-.244l-.123-.121-.365.121-.365-.121-.121.121-.121-.121v-.121h.244v-.121h-.244l-.121.121v.121a12.868,12.868,0,0,1-3.034-.727l-.244.244h-.123v-.121q.06-.333,1.213-.971l.606.242.123-.121.486.365.485-.121.121.121.121-.121v-.244H422.8l-1.092-.242v-.244l.607.121c0-.4.323-.606.971-.606l.121.121h.121a2.45,2.45,0,0,1,1.215-.365h.359l.365.244.244-.244.365.244.365-.244h.123l.121.121h.121Zm-12.744,13.957.244.244v-.244Zm.365.244v.121h.244v-.121Zm.242.606v.121h.244v-.121Zm0,.606v.121l.244.242.365-.121v-.121l-.485-.121Zm.365-.486-.121.121h-.123v.121l.729.121v-.121L416,104.9v-.121l-.608-.121Zm-.121-.727h.121l.244-.244v-.121Zm.606-5.219.244.242-.244.244-.365-.365.123-.121Zm-.242,8.618v.244h.607v-.121Zm.121-.608v.244h.608v-.121Zm.607-.121.121.121v.121l.606-.242-.244-.244Zm0,.971v.121h.606v-.121Zm.121,1.577v.242a10.486,10.486,0,0,0,2.548,2.792h.123q-1-1.943-1.7-1.942Zm.485-10.437h.242l.123.121.121-.121h.123a2.939,2.939,0,0,1,1.456.365l.123-.121h.121l.365.365.365-.121a4.537,4.537,0,0,1,1.7.727v.121c-1.134-.244-1.7-.445-1.7-.606l-.123.121h-.121a7.6,7.6,0,0,0-2.428-.485l-.123.121H417.1c0-.161-.121-.244-.365-.244Zm-.121-1.213v.121h.365v-.121Zm0,9.466v.244h.365l-.242-.244Zm.485,2.548v.121h.365v-.121Zm.486-13.471v.121h.365v-.121Zm.242-.365v.121h.244V95.8Zm.244.485V96.4h.244v-.121Zm.485-2.3-.123.121v.121l.971.121V94.1h-.606l-.121-.121h-.121Zm-.121,3.034v.242l.485.121h.121v-.121Zm.121-3.4v.121l.727.121-.244-.244h-.484Zm0,17.112v.121h.242v-.121Zm.121-12.5c0,.121.161.242.485.365v-.365Zm0,1.577c.647.04.971.163.971.365v.121l-.971-.244Zm.121-3.64v.121h.485v-.121Zm.244-.365v.121h.244V95.8Zm.121,16.02v.121l1.334,1.336h.123A2.924,2.924,0,0,0,419.4,111.817Zm.121-18.447v.121h.365v-.121Zm.121.365v.121l1.092.242c0-.161-.323-.284-.971-.365h-.121Zm0,4.855v.121h.244v-.121Zm.123-4.249v.121l1.092.121h.242v-.121l-.971-.121Zm.121-1.213v.121h.244v-.121Zm.729,3.155.121.121v.121l-.121.121h-.123l-.242-.242h-.123l.123.121v.244c0,.161-.123.244-.365.244v.242h.365v-.365h.242v.242l-.121.121v.121h.121l.365-.244-.123-.121v-.244h.365c0,.244.081.365.244.365,0-.161.123-.242.365-.242v-.121a1.562,1.562,0,0,1-.971-.485h-.121Zm-.729,1.336v.121h.244v-.121Zm.121.85v.244l.365-.121V98.47h-.365Zm.244-5.826v.244l.242-.244Zm0,.606v.121l1.942.365V93.49h-.486l-1.213-.244h-.244Zm.121,5.582v.121h.244v-.121Zm.121,1.336h.244v.242h-.244Zm.123-2.548v.242h.365l-.244-.242Zm.121,12.5-.121.121v.121h.485v-.121Zm0-15.292v.121a.322.322,0,0,1,.365.365h1.213a2.722,2.722,0,0,1,1.457.486h.365v-.121a3.153,3.153,0,0,0-1.336-.365V95.19l.121-.121v-.121h-.365v.242l-1.7-.365Zm.242-.848-.121.121v.121l.848.121.123-.121V94.1Zm0-2.427v.121h.244V91.55Zm0,20.267v.121h.365v-.121Zm.244-17.354V94.7h.606v-.121Zm.121,17.718v.121l.606.244h.244c0-.161-.244-.284-.727-.365Zm.244-16.505v.242h.121l.486-.365v-.121Zm0,15.534v.242l.85.121h.121v-.121Zm.121-11.771v.121h.365v-.121Zm.242-2.55v.121l.606.121h.123V97.01l-.485-.121Zm0,3.278h.244v.121h-.244Zm6.8-7.4.485.971a1.024,1.024,0,0,1-.606-.85L427.411,93l.123.121v.242c0,.163-.163.244-.485.244v.244l-.365-.121-.485.121-.121-.121h-.121c-.729.081-1.092.2-1.092.365v.121l1.092-.244q.728.275.727.485l-.365.242H426.2l-.365-.242v.486l-.365-.244h-.121l-.244.606h-.123l-.121-.121h-.121v.121l.121.365h-.244V95.8l.365.727h-.365c0-.181-.163-.344-.486-.486l-.244.244h-.244l-.121-.121-.848.244c0-.244-.081-.365-.244-.365h-.244c0,.566.323.85.971.85v-.365h.85c0,.163-.2.244-.606.244l-.121.121v.242c.566-.141.85-.3.85-.486h.121a1.391,1.391,0,0,0,.85.365l.121-.365-.121-.121.121-.121h.244a1.9,1.9,0,0,1-.606,1.213l-.486-.121c0,.141.2.264.606.365l-.365.727-.121-.121h-.365v.244l.606.121.365-.121,1.092.606-.121.121.365.121.123-.121h.121l1.213.486.121-.121h.123l.85.486.121-.121.123.121v.121l.121-.121h.121l1.821.606h.121c0-.323.2-.486.607-.486v-.121h-.365v-.244a1.707,1.707,0,0,1,.485-1.213L431.9,98.1l.121-.121c-.244,0-.486-.323-.729-.971l.121-.121h.121l.606.85h.365V97.5l-.121.121h-.121v-.244h.244l.365.244h.365l-.607-.486-.121.121h-.121l-.244-.242v-.121c0-.161.121-.244.365-.244v-.121c-.244,0-.486-.365-.729-1.092q-1.7-2.669-2.79-2.669h-.242Zm-6.553,7.524h.244v.242Zm.121-8.252v.244h.123l.365-.121v-.121h-.487Zm0,2.3v.242h.486V94.34Zm0,3.763v.121l.607.121c0-.161-.121-.244-.365-.244h-.242Zm0,14.928a3.326,3.326,0,0,0,1.336.971h.607l.85-.121v-.121A11.122,11.122,0,0,1,422.314,113.031Zm.121-2.427v.121l.485.121c0-.161-.121-.242-.365-.242Zm.365,1.577v.121h.244v-.121Zm.121-21.6v.242h.244v-.242Zm.123,4.369v.121h.365v-.121Zm0,2.3v.121h.244v-.121Zm0,.971v.242h.971v-.121Zm.121-7.16v.121h.485v-.121Zm0,.363v.121a1.057,1.057,0,0,1,.971.606l.486.121a1.4,1.4,0,0,1,.85-.365V91.79l-2.184-.365h-.123Zm0,7.282v.121h.244V98.71Zm.121,1.213v.121h.365v-.121Zm0,10.56v.121h.242v-.121Zm0,1.092v.244h.607V111.7Zm.121-17.6h.244v-.242Zm.365-.729-.121.121v.244l.607-.121v-.121Zm0,.729-.121.121v.121a1.4,1.4,0,0,1,.85.365l.244-.242v-.121A1.743,1.743,0,0,1,423.77,93.978Zm-.121,3.155v.121c0,.163.121.244.365.244h.123v-.121l-.244-.244Zm0,15.17v.121l.727.242v-.242l-.606-.121Zm.121-2.669h.123v.244h-.123Zm0,1.336v.121h.244v-.121Zm.121-20.147v.121l.85.121h.121v-.121l-.485-.121Zm.244,23.423v.121l1.456.365.121-.121,1.213.121a7.694,7.694,0,0,0,3.155-.606V114H428.5l-1.457.121V114l-.121.121-.606-.121Zm.121-18.689v.121h.244v-.121Zm0,5.7h.485l-.244.244h-.244v-.244Zm0,10.558v.121h.365v-.121Zm.121-21.481v.121h.244v-.121Zm0,19.783v.121h.244v-.121Zm.123-9.831v.121l.244.244h.363v-.244Zm.121-8.5h.123v.242h-.123Zm0,1.942h.244V93.49Zm0,.971v.121l.244.244c0-.244.081-.365.244-.365v-.121h-.123Zm.363,6.311.123.121v.365l-.365-.365.121-.121Zm-.121,12.015v.121l.365.121h.244v-.121l-.486-.121Zm.121-3.155V110h.244v-.121Zm0,.848v.244h.123v-.244Zm.123-19.3v.121l.365.121.121-.121v-.121Zm0,.729.244.244.121-.121v-.121h-.365Zm.121-1.092v.121l.729.121h.242v-.121l-.727-.121Zm0,20.025v.121l.244.242h.121l.244-.242-.244-.244Zm0,1.092h.244v-.244Zm.363-20.267v.121h.365v-.121Zm.365,3.4v.244l-.244.242h-.121v-.121ZM425.59,110v.244h.244V110Zm.123-18.447v.121h.244V91.55Zm0,10.194h.244v.121h-.244Zm0,7.889v.121h.244v-.121Zm.242-18.933v.121l.485.121h.123v-.121l-.486-.121Zm0,1.821v.121h.242v-.121Zm0,17.6v.121h.365v-.121Zm.123-18.568v.244l.971.121-.244-.365-.121.121h-.365l-.121-.121Zm0,.485v.121h.486v-.121Zm.121,20.875v.121h.244v-.121Zm.121-11.166,2.184.727c.485.081.729.2.729.365l-.365.121q0-.3-1.213-.365c0-.141-.284-.344-.85-.606l-.121.121h-.121l-.244-.244Zm.121-11.408.244.244h.121l-.242-.244Zm.123,20.51v.121h.242v-.121Zm.121-10.315v.121h.244v-.121Zm0,9.708v.121h.365v-.121Zm.242-18.083-.123.121V92.4l.485.242.607-.121V92.4Zm0-1.577V90.7h.244v-.121Zm0,19.418h.244v-.242Zm0,2.913v.244h.365l-.244-.244Zm.121-21.968v.244l.244-.244Zm0,9.71v.121l.365.121h.123v-.121l-.365-.121Zm.123,8.253v.121h.365v-.121Zm0,4.732v.121h.242v-.121Zm.242-23.423v.121h.244v-.121Zm.365.121v.121h.485v-.121Zm0,.365.365.365.121-.121V90.7Zm0,9.587v.121l1.334.365v-.365h-.121l-1.092-.121ZM427.9,113.4v.121h.244V113.4Zm.121-5.34c0,.163.123.244.365.244h.244v-.121Zm.123-6.311v.121h.244v-.121Zm0,9.1v.121h.365v-.121Zm.121-2.063v.121l1.092.365v-.121c0-.161-.163-.244-.485-.244v-.242Zm0,3.278v.244l.606-.121v-.365Zm.121,1.213-.121.121v.365h.244l.123-.365-.123-.121Zm.244-3.4-.244.242v.244l.485-.486Zm-.123.727v.121h.244V110.6Zm.123-19.418v.121h.242v-.121Zm.121.971v.121h.244v-.121Zm0,17.233v.121l.244.244v-.365Zm0,3.884.244.244v-.244Zm.121-21.723v.121l.729.121h.121v-.121l-.606-.121Zm0,10.315c.081.244.323.365.729.365h.121v-.121Zm.244,4.855v.121l.606.121h.121v-.121l-.485-.121Zm.242-12.865h.244a11.952,11.952,0,0,1,1.821,2.79l-.121.121h-.121l-1.821-2.792v-.119Zm.244,12.258v.121h.365l.121-.121v-.121h-.121Zm0,2.427c0,.242.161.365.485.365h.123v-.121l-.486-.242H429.6Zm0,.606v.121h.244v.242H429.6v.121l1.213.121c-.143-.4-.506-.606-1.092-.606H429.6Zm.363-15.534h.121l.485.244V94.1l-.85-.242Zm-.242,14.321.121.121-.121.121v.244h.121c0-.161.121-.244.365-.244l-.244-.242Zm.242-15.9v.121h.244v-.121Zm0,8.86v.242h.244Zm0,1.94v.242l.606.121v-.244Zm0,4v.244h.485v-.121Zm0,6.19v.121h.244v-.121Zm.121-5.461c0,.163.123.244.365.244h.242v-.121Zm.729.242v.121h.244v.242h-.365v.121h.365l.121-.121v.121l-.365.365-.606-.365h-.123v.121l.485.121v.121l-.121.121v.121l.727.121.244-.244.365.121.244-.365.365.121q0-.3-.971-.365v-.244l.85.121v-.242l-1.336-.121h-.123ZM430.2,92.884q1.457,1.426,1.456,2.063h.242a.322.322,0,0,1,.365-.365v-.121q-.638,0-1.336-1.215c-.323,0-.485-.121-.485-.365H430.2Zm.121,9.589v.121h.244v-.121Zm.121-1.336v.121h.485v-.121Zm0,2.913v.121h.242v-.121Zm0,6.189v.365h.242v.121l.485-.365-.244-.244Zm.123-4v.244h.121v-.244Zm.363-1.092-.121.121v.121l.121.121-.121.121h-.121q.03.577.971.971h.365v-.121h-.244v-.244l.121.121h.486v-.244a.643.643,0,0,1-.727-.727Zm-.242,1.577v.121l.244-.242v-.121Zm0,.365v.121l2.063.606v-.244a5.506,5.506,0,0,1-1.821-.485h-.242Zm0,5.7v.121h.244v-.121Zm0,1.7.244.242v-.242Zm.121-10.316v.121h.244v-.121Zm.365,5.1v.242l.244-.242Zm.121.729-.121.121v.121h.365Zm0-7.161v.121h.244v-.121Zm0,11.652h.121l1.092-.365V114h-.121Q431.3,114.214,431.295,114.488Zm.242-13.715v.121l.121.365h.121v-.121l-.121-.365Zm0,3.278.121.365h.242v-.121l-.242-.242h-.121Zm0,8.01v.121h.244v-.121Zm.123-.85v.242h.242v-.242Zm.121-.486v.244l.365.121h.121v-.121Zm0,1.821v.365h.121v-.365Zm.121-2.307v.121h.121l.485-.365h.242l.121.121a1.665,1.665,0,0,0,.85-.727l-.121-.121v-.121A2.437,2.437,0,0,0,431.9,110.239Zm.123-15.291c0,.121.445.324,1.334.606l.486.365v-.242A3.085,3.085,0,0,0,432.024,94.949Zm0,6.553.244.242h.244V101.5Zm.121-7.524V94.1h.244v-.121Zm0,6.189v.121h.244v-.121Zm0,4v.242h.244Zm.121-11.773v.121h.244V92.4Zm1.942,17.355v.121l.365.121-.121.121v.244l.121-.121h.121l.85.121v.121a12.91,12.91,0,0,1-2.307,2.063l-.365-.121v.121q-.244.486-.606.485v.242h.121a7.188,7.188,0,0,0,3.519-3.278l-.123-.365.123-.121-.485-.121-.365.121v-.121l-.121-.121a.655.655,0,0,0-.486.485h-.242Zm-1.821-10.8.606.242h.121v-.242l-.486-.244Zm0,1.942v.121h.244V100.9Zm0,1.577v.121h.244v-.121Zm.123-.365v.121l1.092.242h.121v-.121l-1.092-.242Zm0,5.947v.121h.242v-.121Zm0,3.4v.121h.365v-.121Zm.121-11.166v.121h.244v-.121Zm0,.971.244.244h.365v-.244Zm.121-8.01v.244h.244l-.121.121v.121l.121.121h.244V93.49Zm.242,13.471v.121h.244v-.121Zm.123-12.5c0,.181.2.3.606.365v-.242Zm0,8.616v.121h.242v-.121Zm.121,1.094h.121l.486-.121-.244-.244Zm0,4.368.244.244V108.3Zm.971-11.771v.244h.244v.244h-.244l-.85-.365v.121l.606.606q.97-.181.971-.606c-.324,0-.486-.081-.486-.244Zm-.85,5.1v.244h.365l-.244-.244Zm.123-2.792c.1.4.222.606.365.606h.486a1.1,1.1,0,0,0-.606-.606Zm.121-2.79v.121h.244V96.04Zm0,11.771.244.242h.244l-.244-.242Zm.121-10.315,1.577.971.244-.365v-.121H435.3l-.123.121h-.121C435.058,97.882,434.612,97.678,433.722,97.5Zm0,10.8v.244h.121V108.3Zm.242-12.865v.121h.244v-.121Zm0,14.807v.121l.244.244v-.121Zm.244-14.928h.244V95.07Zm0,6.068v.121h.486v-.121Zm.606.123-.121.486-.121-.121h-.365c0,.244.323.4.971.486v-.242h-.485l.244-.244h.121l.121.121h.123v-.121l-.365-.365Zm-.485-5.947.242.242h.121l-.244-.242Zm0,7.039v.121l.971.242c0-.181-.284-.3-.85-.365h-.121Zm.121,7.889v.121h.244v-.121Zm.121-1.577v.121h.244v-.121Zm.123-9.952V99.2l.485.121v.244h-.365v.121h.85v-.365h-.485v-.244h.365v-.121h-.85Zm.121,4.732v.121h.244v.121c0,.161-.121.244-.365.244v.242h.121l.606-.606-.485-.121Zm-.121.85v.244h.121v-.244Zm0,1.577v.121h.244v-.121Zm0,2.548v.121h.244v-.121Zm.121-13.957v.244h.121V94.7Zm0,.485v.244l.244-.244Zm.244,2.063-.244.244v.121h.121l.365-.121Zm-.244,7.889v.121h.244v-.121Zm0,.485v.121h.244v-.121Zm0,2.548v.121l.485.121v-.244h-.485Zm.365-13.228v.242h.244v-.242Zm0,.848v.121h.365V95.8Zm.121,10.558v.244c.323,0,.485.121.485.365l.85.121V106.6Zm.365-11.286-.244.242v.121l.244.244.121-.121v-.121h-.121l.121-.121v-.242h-.121Zm-.244,12.136v.121l.365.121h.244v-.121l-.486-.121Zm.123-1.942v.121h.242v-.121Zm0,.485v.121h.242v-.121Zm.121-9.831.121.121v.121l.365-.121v-.121Zm0,1.336V97.5h.121v-.244Zm0,11.166v.121h.244v-.121Zm.242-4.49v.244l.244-.244Zm.121-6.555h.121l.242-.244h-.121Zm0,2.427v.244h.365l-.242-.244Zm0,2.186.121.121v.121l.727-.121v-.121Zm0,3.155v.365h.121l.242-.242-.121-.121h-.242Zm.123-2.669v.244h.242Zm0,2.184v.121h.242v-.121Zm.121-1.577v.121h.244v-.121Zm0,2.913v.121h.365v-.121Zm0,2.548v.121h.244v-.121Zm.244-10.437v.121h.244V98.1Zm.485,5.218v.121h.242v-.121Zm.606-5.947.121.121v.242h-.606V97.5Zm-.365.971v.121c.244,0,.365.081.365.244h.242l-.121-.121v-.121l.121-.121h-.606Zm0,2.55v.121l.123.365h.121v-.121l-.121-.365Zm.121-1.336V99.8l.121.121v.121l.121-.121h.121l.365.244h.121C438.212,99.884,437.929,99.681,437.362,99.56Zm0,2.669v.121h.244v-.121Zm.244,1.215v.242c.323,0,.486.081.486.244l.244-.244-.486-.242Zm.121-3.157v.121h.244v-.121Zm.244,4.249v.121h.244v-.121Zm.242.85-.121.121v.121l.121.121h.242v-.121Z" transform="translate(-344.975 -75.863)"/><path class="a" d="M556.85,39.777h.121v.242h-.121Zm40.536-6.553h.244l.244,3.884.244-.244v-.85h.244v.971h.121l1.456-.244v.121c0,.161-.244.244-.729.244v.121h1.457l.485-.121.486.121.123-.121h.121l.123.121h.121l.486-.121.364.121.971-.606.123.121v.244q0,.365-.971.365v.123q.97,0,.971.244v.121l-.123.121v.121l-.121-.121-1.213.121h-.485v.606q0,.244-1.213.244v.121c.81,0,1.213.081,1.213.242v.121a5.605,5.605,0,0,0-2.669.971l-.121-.121h-.123l-.365.121V40.5c.323,0,.485.081.485.242-.284,0-.526.4-.729,1.213h-.121l.121.121-.121.606v.365l.121.485-.121.121q.484,4.853.727,4.855l.123,2.063h-.123q-.333,0-.607-2.063h-.121v.121l.121,3.519V54.46l.121,1.336-.121.486c.182.648.425.971.729.971v.242h-.244v.121l.606.121h.971v.242l-.485.121-.971-.242.244.365.121-.121h.121l.485.121,1.092-.121h.365l.244.244-.244.242H601.4v-.242l-1.457.121v-.121l-.122.121H599.7l-.121-.121h-.121l-.121.121v.121h.971v.121l-.121.121v.121h.727v-.121l-.121-.121v-.121l.121-.121h.244v.121l-.123.121v.121h.729v.244h-.244v.121h.244v.121l-.123.121v.121l-2.063-.121h-1.092l-.365.244-.244-.244h-.123v.244h-.121l-.365-.244h-.607l-.485.121-.121-.121-.607.121H595.2l-.121-.121-.121.121h-6.19l-.242-.244v-.485l.242-.244.729.121.365-.121V58.7l.729-.121v-.121h-.971l-.121.121h-.121l-.727-.121v-.244h.485V58.1H588.9v-.242h.244l.121-.121.244.242V58.1l-.121.121h.244v-.244h.364v.244h.244c0-.161.161-.244.485-.244v-.121h-1.092v-.244l.364-.121.121.121h.244v-.244h.121l.729.121.121-.121h.121l.485.121c0-.2.161-.323.486-.365l-.244-.244-1.213.244L590.843,57V56.88l.729-.121c0-.161-.163-.242-.485-.242v-.365l.244-.365-.121-.121.121-.121h1.334v-.121L591.33,55.3l-.121-.365a3.1,3.1,0,0,1,1.456-.365v-.121H592.3l-.971.242-.121-.121v-.121l.121-.365-.121-.121.606-.121v-.121c-.4,0-.606-.081-.606-.244s.121-.242.364-.242v-.121c-.244,0-.364-.081-.364-.244v-.971l.242-.244c.729.04,1.092.121,1.092.244l.971-.244.485.121.485-.121v-.121h-3.034V51.3l-.121-.121.121-.121h.244v-.121h-.365v-.242h.607l.121-.121.121.121h.606v-.121l-.606-.121-.121.121h-.606l-.242-.244v-.365l.121.121h1.334v-.121H591.33c0-.161.121-.244.365-.244V49.6c-.323,0-.485-.121-.485-.365l.121-.485-.121-.485.606-.121-.244-.244-.121.121h-.121l-.121-.121V47.78l.121-.121-.121-.121v-.85l.121-.121-.121-.121v-.485c0-.161.121-.244.364-.244l.121-.121v-.121c-.323,0-.485-.081-.485-.244v-.365h.364l.121.121.606-.121v-.244c-.244,0-.364-.161-.364-.485h-.121l-.364.121.121.121v.244h-.121c-.161,0-.284-.485-.365-1.456l-.121-.121.121-.121h.121l.121.121h.121l.121-.121-.365-.485h-.244l-.365.121V42.44q0-.275-2.063-1.456h-.244V41.1a.705.705,0,0,1,.727.486v.121H588.9a4.767,4.767,0,0,0-2.184-1.092h-.485v.121q.393,0,1.213.971v.129l-1.7-1.213L583.8,41.963l.121.121V42.2l-.365.121.121.121v.485h-.485v-.365h-.244l-.121.121H582.7l.123.121v.244h-.244v.121h.971V43.9q0,.244-1.092.244v.121l.486.121.365-.121.121.121v.485l-.244.242v-.121l-.729.121v.121q.97,0,.971.244v.365l-.121.121v.121l.121.121-.365.242-.121-.121c-.727.1-1.092.223-1.092.365l.606-.121h.729l.244.244v.365c0,.161-.121.244-.365.244l.365.727q-1.335.121-1.335.365h.244l.121-.121h.121c.485.1.727.223.727.365v.121h-.485l-.85.121v-.242h-.85v-.244h-.244c0,.161-.2.244-.606.244l-.121.121-.123-.121-.607.121h-.85l-.242.242.606-.121h.485l.365.244.729-.365V49l.121-.121h.606v.242h-.727v.121h.364v.244l-.85-.121.244.242h.485q.363-.484,2.3-.485v.121l-.121.121v.121h.121l-.121.121v.244c.323,0,.486.081.486.244v.121l-.244.244h-.244l-.121-.121c-.729.244-1.092.445-1.092.606h.121l-.121.121v.244l.607-.121h.727v.121h-.242v.242h.121l.365-.121.121.121v1.215l-.121.121.121.121v.727c0,.161-.121.244-.365.244l-.121-.121h-.121l-.365.121-.121-.121-1.7.365v-.242h-2.3l-1.092.242-.121-.121H577l-.728.121h-.123v-.242h.244v-.121c-.244,0-.365-.081-.365-.244v-.727h.121l.365.121-.121-.121v-.242l.121-.121V52.4l-.242-.244.121-.121h.244l.85.242v-.242h.242v.242h.364l-.123-.121v-.242l.365.242h.242v-.242c.4,0,.606.081.606.242l.729-.242V51.8l-1.821-.121-.971.244v-.365l-.971.365-.121-.121v-.121c0-.2.161-.323.486-.365V51.19c-.323,0-.486-.081-.486-.244a.574.574,0,0,1,.607-.485V50.7h.485L577,50.584v-.121l1.7.244h1.092v-.121l-.121-.365h.121l.485.121h.117l-.121-.121v-.242H581v-.121h-.485l-.729.121-.485-.121c0,.244-.081.365-.244.365l-.971-.121-.365.242-.485-.121-1.092.121-.244-.486.123-.121h.121l-.244-.606.123-.727-.123-1.092.123-.121h.121l-.121-.121v-.242l.121-.121-.121-.121v-.365l.121-.121-.121-.121v-.85l.121-.121-.121-.121V43.31c-.2,0-.324.365-.365,1.092l-.123.121h-.244l.365-1.7-.123-.121h-.121a6.433,6.433,0,0,1-.971,1.942H574.2l-.244-.244.121-.121V44.16l-.121-.121.486-2.427a5.539,5.539,0,0,0-2.913-.971h-.244V40.4h-.244c0,.2-.4.365-1.213.485l-.121-.365h-.123l-.365.242-.485-.121v.244l.85.121v.121q-.88.7-1.457,3.276l-.606.244v.121h.244l.244-.244.244.244v.727c0,.161-.2.242-.607.242v.244h-.123l-.607-.121q0,.244,1.213.244l.123.121v.121l-.123.365.123.121c-.4.1-.607.222-.607.365l.607.121q0,.426-1.092.486l-.121-.121v-.121l.121-.121h.121l.364.121.121-.121v-.121l-.607-.244c0,.244-.081.365-.244.365l-.365-.365c0,.163-.121.244-.364.244l-.365.365H565.7v-.242h.244L565.7,47.2q0,.486-1.334.485V47.8h1.213l-.121.121v.121h.242l.122-.121.121.121h.244c0-.2.2-.323.606-.365l.121-.121.123.121V47.8l-.244.244.121.121h.485l.365-.244.123.121h.121l.121-.121.123.121v.121c0,.161-.163.242-.486.242v.244l.123-.121h.121l.244.244v.606c0,.161-.123.242-.365.242l.242.365c-.485,0-.727.081-.727.242h.121l.123-.121h.121l.486.365-.85.121.244.244h.606v.121c0,.163-.244.244-.729.244v.121l.365.121-.123.365h.123c.242,0,.365.081.365.244l-.123.121.123.121v.121c0,.161-.244.244-.729.244v.121h.607v.242h-.485v.121c.4,0,.606.081.606.244V53.5l-.244.244h-.971v.244l-.244.242-.607-.121.365-.485h-.971l.244.365-.244.365-.121-.121h-.244q0,.456-.971.606l.123.121v.244h-.85l-.244.242q1.577-.091,1.577-.365h-.242v-.244h.242l.123.121h.121l-.121.121v.244l.727.242v.244h-.121l-.121-.121h-.121l-.486.121v.242l.608-.121.607.121v-.485h-.244v-.242h.364a1.935,1.935,0,0,0,1.092-.486l-.121-.365h.971v.242h-.365v.121c.323,0,.485.284.485.85v.121l-.729.727h.123l.485-.365c.1,0,.264.4.485,1.213l.365.121v.121l-.121.121v.121h.121l.123-.121.85.121h.727l.244.242-.123.121.123.121-.123.606v.606h-1.213v-.121l.123-.121V59.2h-.365c-.161,0-.242.121-.242.365l-.365-.121-.606.121H566.8l-.121-.121-.121.121h-1.577v-.121l.121-.121V59.2h-.121a.322.322,0,0,0-.365.365h-.485l-.121-.121-.121.121h-.85l-.121-.121-.121.121h-1.213v-.244h-.364c0,.163-.2.244-.607.244v.121l.121.85-.121.121.121.606v.971h-.244v-.606l.121-.121-.121-.365h-.121q-.242,0-.242,1.213l-.365.242V62.48l.244-.485c-.244,0-.365-.081-.365-.242l.121-.85-.121-.85.244-.242v-.244h-2.307v-.121l.244-.365c-.244,0-.365-.161-.365-.485l.121-.121h2.307l-.244-.365h.244v-.121q-.607,0-.606-.485h.121c.323,0,.485-.2.485-.606h.121l-.244-.485q.365,0,.365-1.336l-.244-.727v-.485h.244V53.62c-.244,0-.365-.323-.365-.971h.244l.121.727h.121L560,51.434c.04-.323.161-.486.365-.486V50.1h.244v-.365h-.244v-.727h.244v-.242h-.244v-.244l.121.121h.121v-.121l-.244-.606h.244l-.121-.121v-.365l.485-2.307L560.855,45v-.727c0-.161.161-.244.486-.244V43.91c-.324,0-.486-.081-.486-.242l.607-.486.121.121.121-.121V42.94h-.365l-.121.121H561.1l-.123-.365L560,44.032l-.121.121h-.121l-.121-.121v-.121l.727-1.7h.365l-.121-.365q1.789-3.4,3.884-4.247L566.558,37l.121.121h.121L568.5,37h.364l.121.121.123-.121h.121q3.883.728,3.884,1.577h.121l.123-.121q.03.333,1.7,1.336.091-.547,1.577-1.942V37.6h.121l.123.121a10.937,10.937,0,0,1,3.64-1.7l.606.121.121-.121h.121l.365.244.121-.121,1.456.486.121-.121q0,.212,1.457.606l.244.242.121-.121h.121q2.155.363,2.184.971l.121-.121h.244l.365.365-.485.121v.121c.322,0,.485.121.485.365h.365l-.121-.121v-.244h.364q0,.486.607.485l.244.365v.113h-.365v.121h.365V39.9l-.121.121v.121a1.8,1.8,0,0,1,1.577.606h.242l-.242-.365v-.121l.242-.244.244.244c0-.161.121-.244.365-.244V39.9h-.727l-.121-.85.121-.85-.121-.365,1.092-.121V37.59H591.08v-.244l.485-.121.485.121.607-.121a.322.322,0,0,1,.365.365h.365v-.244h2.063l.485-.121.121.121h.121c.729-.081,1.092-.2,1.092-.365l.121.121h.244l-.121-.606Zm-39.2,24.638v.121l-.244.244-.242-.244.121-.121Zm.606,0h.365v.365l-.606.121h-.365V58.1h.729l-.121-.121v-.121Zm0,1.092v.121h.244v-.121Zm.971-14.807.121.606h-.364v.121l-.121,1.213h-.244v-.121Q559.309,44.147,559.763,44.147Zm-.607,2.671h.244v.85h-.244Zm.121,1.092h.121c.161,0,.244.161.244.486h.244l-.244.365v.121q.607,0,.607,1.213H560l-.85-1.7Zm0,10.315h.244v.121h-.244Zm.729-12.136v.485h-.485V46.33Zm-.365.971h.244V47.3h.121l-.121.365.121.365h-.244l-.121-.606Zm0,4.855h.244v.365h-.244Zm.485,8.01v.244h.121v-.244Zm.727-13.471V46.7h.729v-.244Zm2.671.727.244.365-.365.121V47.3h-.729v.121h.365v.242h-.121l-1.821-.121-.244.606.121-.121h.123v.242l.121-.121h.244l.121.121a.322.322,0,0,0,.365-.365h.85l.606.121v-.244h.848l-.121-.606h-.607ZM561.1,41.234l-.123.606c.141,0,.264-.2.365-.606Zm-.123,7.889v.365l.608-.244v-.121Zm0,.606v.121h1.336v-.121l-.727-.121Zm4.128.608-.121-.121V50.1l-1.092.242v-.121l-.121.121h-.123l-.121-.121-.606.121h-.365v.244h-.365v-.244l-.121.121h-.121v-.365H561.7v.365h.244l-.244.244-.364-.365h-.121v.244H561.1v-.244h-.123v.244l.123.121-.123.121h.486l.485-.121.486.121h.121l.365-.244h.121l.123.121.121-.121h.244l.121.121h.123l.121-.121v-.121l.121.121h.365l.365-.121v.365c.161,0,.244-.121.244-.365h.606V50.7h-.244v.242l.365.121q1.577-.181,1.578-.485h-1.457c0-.181.486-.3,1.457-.365v-.121l-.365-.121A4.564,4.564,0,0,0,565.1,50.337Zm-4.128.971v.121l.485.121.971-.242v-.121Zm0,.363.123.121-.123.121v.365h.608v.244h-.608v.244l.123-.121h.607l.365.242v-.242l.121-.121-.121-.121h-.121v-.121h.365v.365h.244c0-.244.2-.365.606-.365h.121l.121.121.121-.121.607.121,1.335-.121V52.16l-.608-.121-.121.121h-.121l-.121-.121h-.121l-.486.121-.121-.121-2.063.242a.573.573,0,0,1-.485-.606h-.245Zm0,2.307V54.1q0,.365,1.336.485v.242L561.7,54.7h-.121v.244l.606.121.365-.121.121.121.121-.121v-.121h-.244v-.242h.485v.365h.85l.244-.244h-.85v-.242h1.7v-.121l-.606-.121-.486.121h-.121c0-.161-.2-.244-.606-.244v-.242h-1.578Zm0,1.456v.244l.485-.121v-.121h-.485Zm.85.727-.365-.121.121.121V56.4h-.608v.121h1.578l.121.121.365-.121V56.4h-.485v-.244h.606v.365h.244v-.365h.848l-.242-.242-.364.121-.486-.121Zm-.85,2.186v.121h.244v-.121Zm.123-16.02.244.242.121-.121v-.121Zm2.427,5.7.121.121v.242l-.848.121v.121h.121l.971-.121v.121l-.243.244h-1.334v-.244l-.244-.244h-.121q0,.365-.85.365v.121h.85l.121-.121.121.121V49l-.244.244h.121L563.16,49l.485.121.729-.242h.727v.242h-.244v.121h.485l.485-.244v-.242h-1.7v-.244h2.184V48.39h-1.7v-.242h.606v-.121h-.244v-.121l-.123.121h-1.332ZM561.1,53.492v.121h.365v-.121Zm.365,3.4.121.121v.121l-.486.121v.121h1.092v.365l-.971.242V58.1l.365.121.121-.121h.85v.365h.244l.121-.485.121.121h.244V57.86H564.5v-.121h-1.7l-.244.242-.121-.606.244-.242h-.244v-.121l.121-.121v-.121Zm-.244-11.408v.242h.607v-.242Zm0,2.913v.121h.244V48.4Zm0,6.31v.121h.244V54.7Zm0,.244v.121h.244v-.121Zm.244-13.108h.607l.485-.242v-.121h-.244v-.121Q561.462,41.507,561.463,41.84Zm0,9.831v.121l.244.244h.365v-.121l-.244-.244Zm0,2.307h.121v.242h-.121Zm.121-11.65v.121h.485v-.121Zm0,11.286h1.092l.244-.242-.85-.121C561.745,53.371,561.584,53.492,561.584,53.613Zm0,1.821v.121l.364.121.971-.121c0-.161-.121-.242-.365-.242Zm.121-10.681v.121h.244v-.121Zm0,1.7v.121h.244v-.121Zm.244,11.894v.121h.244v-.121Zm.121-12.5v.244l.85-.121v-.121h-.85Zm0,.484V46.7l.365-.121.121.121h.121l.365-.121v-.121l-.485-.121-.365.121Zm.121-5.46h.121l.365-.121v.244h-.244v.121h.365l.365-.485h-.244l-.121.121-.121-.121h-.244Zm0,3.034.121.121v.121l-.121.121h.242a.322.322,0,0,1,.365-.365v-.121h-.244Zm0,1.577V45.6h.848l.485-.121.365.121.364-.121-.121-.121V45.24l.365-.121V45A7.484,7.484,0,0,0,562.19,45.482Zm0,6.189v.121h.242v-.121Zm.485-12.379c0,.324-.121.485-.365.485V39.9h.365a.322.322,0,0,1,.365-.365l.123-.121v-.121Zm.365,10.316-.121-.121v-.121l-.121.121h-.121l-.365-.121c0,.161.121.242.365.242v.121l-.244.365v.121a2.466,2.466,0,0,1,1.213-.365h.244v-.121l-.121-.121v-.121l.727-.121v-.121h-.486Zm-.729,4.369h.121v.365h-.121Zm.244-11.773v.121h.485V42.2Zm0,2.792v.121l.364-.365H562.8Zm0,3.519v.244h.121v-.244Zm0,2.913,2.184-.365v-.121c-.4,0-.606-.081-.606-.242h-.121Zm.121,5.339v.121h1.336v-.121Zm.121-12.257h.121l.365-.365v-.121Zm0,8.5v.121h.242v-.121Zm.123-9.952v.121h.244v-.121Zm0,14.078v.242l.244-.242Zm0,1.215v.121h1.457v-.121l-.486-.121Zm.121-12.5v.121l.85.121h.971v-.244h-.485l-.486.121-.485-.121h-.365Zm.121-4.49V41.6h.244l.606-.121v-.121h-.85Zm0,3.4v.121h.244v-.121Zm0,2.186v.121h.244v-.121Zm0,4.611v.244l1.092-.244v-.121h-.485Zm.121-7.889v.121h.244v-.121Zm.244,9.587h-.244v.365c.729-.081,1.092-.242,1.092-.485Zm1.092-10.437v.244h-1.213l.242.242.971-.121V43.3l.365-.121-.123-.365Zm-1.213,14.321v.121c.322,0,.485.081.485.242h.244l-.121-.121v-.121l.121-.121Zm.121-17.6.244.244v-.244Zm.121,14.321v.121h.243v-.121Zm0,5.1v.121h.243v-.121Zm.121-19.662v.121l.365.121V39.29h-.365Zm0,4.49V43.9h.244v-.121Zm.121,6.19v.121h.485v-.121Zm.123-9.224v.121h.365v-.121Zm0,3.519v.121l.727.121v-.242Zm0,.365v.121h.242v-.121Zm0,2.307v.121h.242v-.121Zm0,6.918.121.121V54.1l.121-.121h.123l.606.121c0-.161.121-.242.365-.242v-.121h-.365Zm0,4.976v.121h.365v-.121Zm.848-12.623v.242h-.121l-.485-.121h-.121v.121l1.577.244.123-.121v-.121H565.1v-.242h-.244Zm-.727,3.4v.121h.485v-.121Zm.244-9.952-.123.121v.242h.365l.242-.242Zm-.123,17.112v.121h.365v-.121Zm.123-13.107v.121c.322,0,.485.081.485.244h.244c0-.244.081-.365.244-.365h.121V43.9h.365l-.123-.365h-.121Zm0,3.519.244.244h.121l-.244-.244Zm0,8.618v.242l.364-.121V55.8Zm0,1.7h.606l.244-.485C564.658,57.092,564.376,57.255,564.376,57.5Zm.121-4.49v.244l.244-.244Zm0,3.155V56.4h.365v-.121Zm0,2.307h.244l.365-.121v-.121h-.365Zm.121-18.083v.121h.365v-.121Zm0,11.044h.121l.244-.244h-.123Zm0,7.4v.121h.606v-.121Zm.121-19.541v.121l.365.121q1.336-.091,1.336-.365h-.123Zm.121,5.947-.121.121v.121l.121.121h.608V45.48Zm-.121,1.7v.121h.606v-.121Zm.121,2.669-.121.121v.121h.121l.485-.121v-.121Zm-.121,6.918v.121h.365v-.121Zm.121-15.17V41.6h.485l.244-.244Zm0,5.945v.121h.244V47.3Zm.123,4.128-.123.121v.121h.123l.365-.121v-.121Zm0,.365v.121h.244v-.121Zm.121-8.739.244.242.729-.121.121.121h.121l.729-.121v-.121h-.85l-.486.121-.485-.121Zm0,9.831.365.365v-.121l-.244-.244Zm.121-8.01V45l.606.121c0-.161-.123-.242-.364-.242Zm0,11.65v.121h.365v-.121Zm.121-4.732v.244h.244v-.244Zm0,5.339v.121h.244v-.121Zm.123-5.947v.244h.364l-.244-.244Zm.121-11.286v.121h.244V39.9Zm0,.363v.121h.244v-.121Zm0,5.1v.121h.244v-.121Zm0,7.524v.121h.244v-.121Zm.121,5.461-.121.121v.121h.121l.364-.121v-.121Zm0-16.384v.121h.244v-.121Zm0,12.5h.123l.244.242h-.365v-.242Zm.121-13.107v.121h1.577v-.121Zm0,2.184v.121h.244V43.54Zm0,2.548v.121l.971.121c0-.181-.2-.3-.606-.365Zm0,3.034v.121l.607.365.121-.485-.121.121h-.123l-.365-.121Zm.123-8.86v.121h.244v-.121Zm0,5.22v.242h.244v-.242Zm0,.971V46.7h.244v-.244Zm.121.606v.121h.242V47.06Zm.121-6.311v.121h.244v-.121Zm0,10.437v.121h.244v-.121Zm0,.85v.242h.121v-.242Zm0,3.519v.121h.244v-.121Zm0,2.792.244.242v-.242Zm.121-9.589L566.8,49h.121l.123-.121h.121l.121.121v.121c-.244,0-.365.081-.365.244h.123l.365-.244h.244l.365.244.121-.365a1.576,1.576,0,0,1-1.092-.486l-.123.121-.121-.121h-.244Zm.123-4v.121h.244v-.121Zm1.092-3.4v.121h.606v.244H566.56v.242h.85l1.213-.121v-.121h-.244V41.6l.123-.121v-.121h-.971Zm-.971,8.252.244.244.121-.121V49.61h-.365Zm.121-6.8h.242v-.244Zm0,3.642.242.244.123-.121v-.121h-.365Zm0,6.311v.121h.242v-.121Zm0,.363v.121h.606v-.121Zm0,2.427v.121h.242v-.121Zm0,.971.242.242.485-.121v-.121Zm.121-15.778h.244v-.242Zm0,3.278v.121h.244v-.121Zm.85.85a.834.834,0,0,1-.85.485v.121l.485.121q0-.365.727-.365V45Zm-.85,2.063v.121h.244v-.121Zm0,4.611.244.244.365-.121v-.121l-.244-.242h-.121Zm1.215,2.307.121.121v.365l-1.213-.121Q566.922,53.916,568.016,53.857Zm-.971-4.249v.121h.606v-.121Zm0,2.548v.121h.606v-.121Zm.121-5.7v.121h.729v-.121Zm0,1.819v.121h.244v-.121Zm.121-9.708v.121h.242l.123-.365h-.123Zm.123,9.952v.121h.244v-.121Zm.121,6.918v.121h.244v-.121Zm.121-15.049v.121h.244l.365-.121v-.121h-.123Zm0,2.426v.121h.365v-.121Zm0,12.258v.244h.121v-.244Zm.244-17.233v.121h.242v-.121Zm.242.242v.244l.607-.121V38.08h-.607Zm0,1.336h2.307v-.121l-.727-.121-.123.121-.85-.121h-.365Zm0,3.276v.121h.244V42.69Zm.121-1.7v.121h.244v-.121Zm.729-2.913V38.2l1.821.121h.123V38.2l-.85-.121Zm.242,20.268v.121l.729.121.121-.121v-.121Zm.485-19.662v.121h.244v-.121Zm.485,19.662h.244V58.1Zm.486-18.691v.121h.485v-.121Zm.121-.85v.121h.244v-.121Zm.729.485v.121h.365l.121-.121h.123l.365.121-.244-.242Zm.121.485V39.9h.244v-.121ZM582.58,54.219l.607.121.121-.121.121.121V54.7c0,.163-.163.244-.485.244v.121c.323,0,.485.081.485.244V55.8l-.121-.121h-.244V55.8a.322.322,0,0,1,.365.365l-.121.121h-.365v-.365c-.222.02-.385.222-.485.606l-.121-.121h-.244c0,.242-.163.365-.485.365l.121.121v.121l.606-.244.121.121v.121L581,57.253v-.121c0-.161.121-.244.365-.244v-.121h-.121l-.365.121v-.244h.365v-.121h-.121l-.85.121v.121l.607.121v.121l-.121.121v.121l.121.121H581l.121-.121h.121l.365.121.608-.121.121.121h.121l.85-.365h.244c0,.223.323.465.971.727v.242l.607-.121h.729l.244.242-1.215.485.121.121v.244l-.729-.121-.365.121v.121l.729.121a3.026,3.026,0,0,1,1.334-.244l.121.121v.242l-.244.244h-2.427l-1.7-.121-.121.121L581,59.431a17.921,17.921,0,0,0-3.4.244l-.121-.121h-.123l-.606.121-1.821-.121h-.244l-.121-.121-.121.121h-.123l-2.306-.121V59.19h.606l.122.121.365-.121v-.121c0-.161-.4-.244-1.213-.244l-.244-.365h.123l.485.242c0-.242.081-.365.244-.365l.727.121.365-.121-.244-.365,1.092-.242v.121l-.123.121v.121c.244,0,.365.163.365.486a2.068,2.068,0,0,1,1.092-.365v-.121h-.244l-.727.121-.123-.121v-.121l.606-.242H576.5l-.121-.121v-.244h.244l-.121-.121v-.121c.4-.04.606-.161.606-.365h.485l-.121.485v.121h.121A.322.322,0,0,1,577.96,57v-.244h.123l.121.121.123-.121h1.334c0,.183.244.546.727,1.092h.121c0-.161.161-.244.485-.244v-.121c-.344,0-.667-.242-.971-.727l-1.213-.242-1.334.121H575.9v-.121l.123-.606h.727v.242h.364v-.242h.365v.242l-.123.121v.121h.123c.161,0,.242-.161.242-.486h.491c.4.02.607.1.607.242l1.456-.242v.242l.121-.121h.121l.121.121h.123c.4,0,.607-.121.607-.365h.121v.242h.244v-.242h.121l.121.121h.121l.123-.121v-.121h-1.7v-.244h-.244v.244h-.607v-.244h.244V55.3h-.244l-.364.121-.244-.242h-.365V55.3h.485v.365h-1.092v-.244h-.244v.244l-1.7.121-.121-.121V55.3c0-.161.323-.244.971-.244v-.121q-.97,0-.971-.244l.244-.242.121.121.85-.244v.244h-.365v.121h.365q.97,0,.971-.365h.244l.365.244h.971v-.244l.121.121.121-.121h1.456Zm-9.466-14.928v.121h.244v-.121Zm.729.85v.121h.365v-.121Zm.727,2.063v.244l.365-.365v-.121h-.121ZM575.9,56.768h.729v.244c-.244,0-.365.081-.365.244h-.123v-.244H575.9l-.121.365h.364v.244l-.485-.121-.485.121h-.121V57.5l.242-.242.364.121-.123-.121v-.121Zm.487-18.2q-1.091,1.184-1.092,1.7h.123q.668,0,1.092-.971h.121V39.05h-.244v-.244l.121.121h.121v-.121ZM575.3,41.234v.121h.244v-.121Zm.606-1.942h.244v.365H575.9Zm0,1.094.123.365.365-.121v-.365Zm0,17.6V58.1h.244v-.121Zm.123-14.928v.121q.728-.121.727-.365h-.485Zm.365,5.826.121.121-.121.121v.244h.121l.244-.244L576.634,49l.121-.121Zm0,.606v.242h.244Zm0,5.947v.121H577l-.121-.121v-.121Zm0,2.548v.244l.485.121c0-.161.161-.244.486-.244v-.121Zm.121-17.962v.365h.121v-.365Zm0,9.831v.121h.244v-.121Zm.365,2.79-.244.486h.244l.486-.121.123.121h.121a1.9,1.9,0,0,1,1.092-.244v-.121h-.85L577.6,53l-.365-.242-.121.121Zm0-14.442v.85c0,.161.282.284.848.365v-.121l-.121-.365h.121a1.678,1.678,0,0,1,1.215-.606l.606-.121.485.121.729-.121.121.121H581l.365-.121v.121l.121-.121.606.121h.485l.244-.244-1.215-.121-.121.121h-1.456l-1.213.121v-.244a9.3,9.3,0,0,1,3.034-.971l.121.121v.121l.364-.244.607.121h.727v-.121l-.606-.121-.121.121c0-.161-.2-.244-.607-.244l-.244-.242-.121.121-.85-.121A7.7,7.7,0,0,0,576.876,38.2Zm.971,8.5-.485.485-.121-.121h-.121v.121l.121.121h-.365v.121l.727.242.244-.365-.121-.121.121-.121h.121v.121l.971-.242v-.244l-.606.121h-.244l-.123-.121h-.119ZM577,40.506v.121h.365l.244-.365h-.121Zm.85,2.3H577v.244h.121l1.577-.121.121.121h.123l.485-.121v-.121h-.243v-.121l-.121.121h-.244l-.365-.121ZM577,45.6v.121h.244V45.6Zm0,.485h.244v-.244Zm0,1.821v.121h.244V47.91Zm0,1.577v.242l.121-.121h.121l.121.121.123-.121.85.244.364-.121V49.61l-.606-.121H577Zm.121-5.947v.121l.606.121.121-.121V43.54Zm0,.85h.365l.242-.242h-.364Zm0,14.563v.121h.486v-.121Zm.121-17.355v.121h.606V41.6Zm0,7.4v.121h.365l.486-.121v-.121h-.365Zm0,8.737h.85V57.5h-.607Zm.121-15.776v.244h.123v-.244Zm0,12.986v.121h.606v-.121Zm.244-13.836v.242h.244l.244-.242Zm0,9.71v.365h.364Zm0,7.524v.242l.244-.242ZM577.725,45v.121h.244V45Zm0,13.957v.121h.365v-.121Zm1.7-13.35c0,.2-.2.324-.606.365v-.121l-.971.121v.121c.4,0,.606.081.606.242l.607-.121-.121-.121v-.121h.121l.727.121.607-.121v-.121c-.323,0-.486-.081-.486-.242h-.484Zm-1.577,2.184v.244h.121v-.244Zm.121,8.374v.121h.242v-.121Zm.121-11.286V45h.244v-.121Zm0,.727v.121h.606V45.6Zm0,5.705v.121h.485l1.092-.244.121.121h.121l.486-.121v-.121h-.365Zm0,3.64v.121h.727v-.121Zm0,3.034V58.1l.606.121v-.244h-.606Zm.121-17.112v.121h.123l.365-.121.121.121v-.244Zm0,16.868h.123l.242-.244h-.121Zm0,1.215v.121h.729v-.244Zm.244-14.2.121.121v.121l.971-.121v-.121Zm0,5.584h.244v.244h-.244Zm.242-11.166v.121h.606v-.121Zm0,8.739v.121h.244V47.91Zm0,9.587v.121h.244V57.5Zm.121-4.611.244.244h.244l.121-.485H579.3Zm0,.606v.121h.244v-.121Zm0,4.49.123.485,1.457-.244V58.1h-.242l-.971.121v-.244h-.366Zm.123-13.836v.242h.242v-.242Zm0,2.913v.486h.242V47.06Zm.242-6.068h.121l1.092-.121V40.75h-.971Zm0,2.184V43.3h.121l.606-.121-.121-.121v-.244h.971V42.69h-.244v-.121a1.5,1.5,0,0,0-1.213.606Zm0,7.161h.244v.244h-.244Zm0,8.616v.121h.364v-.121Zm.122-15.534v.121h.607v-.121Zm.242,10.679h.242v.244l-.121-.121-.121.121H579.3Zm-.242,3.4.121.365.486-.244V57.5Zm.484-16.263a.322.322,0,0,1-.364.365v.121l.364.121.971-.121V41.6l-.729-.121v-.244Zm-.363,5.584v.121h.244v-.121Zm0,.484v.244h.244V47.3Zm0,5.826h.365v-.244h-.121Zm.121-6.553V46.7h.242v-.121Zm.121-1.7.85.121v-.121l-.364-.365Zm0,10.073v.121h.486v-.121Zm.121-9.71v.121h.244v-.121Zm0,2.186v.121h.244l.729-.121V47.3h-.366Zm0,4.126v.121h.486V51.55Zm0,.971v.121l.244.365v.365l-.121.121v.121l.606.121V53.49h-.244l.485-.727-.485-.244-.365.121Zm.123-5.826v.244l.727-.121v-.244h-.121Zm0,12.258v.121H581l.121-.121v-.121Zm.121-15.9v.121h.363v-.121Zm0,3.155v.121h.244l.727-.365.729.244v-.244l.606.121h.121v-.121l-.607-.121h-.727Zm0,4.369V50.7h1.7v-.244h-.121l-.364.121-.607-.121Zm.121-10.194h.121l.244-.244h-.123Zm.121.727v.121h.485v-.121Zm0,2.307v.121h.365v-.121Zm0,4.611v.121h.244v-.121Zm.121-6.068v.244h.121v-.244Zm.123,2.427v.244c.323,0,.486.081.486.244a.322.322,0,0,0,.365-.365h.121v.244h.486l-.121-.121v-.244h.485v-.121h-.364Zm0,.848.121.121v.121l.729-.244v-.121h-.485Zm0,5.826v.121h1.092v-.121Zm.121-12.379v.121h.244v-.121Zm.244,17.113H581v.242h-.365Zm-.123-16.263v.244h.486v-.123Zm0,.606v.121h2.184v-.121l-.971-.121-.121.121h-.121l-.485-.121Zm1.336.606-.121-.121h-.365l-.848.121v.121h1.821V40.5h-.244Zm-1.336,11.773v.121H581v-.121Zm0,.971.242.244h.365V53.25Zm0,4.611v.121H581V58.1Zm.123-15.292H581l.485-.121.971.121c0-.222.244-.385.729-.485V42.2h-.365l-.85.121V42.2A2.22,2.22,0,0,0,580.881,42.811Zm0,3.763V46.7h.244v-.121Zm0,.365.244.242.121-.121v-.121Zm0,.363v.121h.365V47.3Zm0,2.792.244.242h.121l.244-.242V49.85Zm0,4.369V54.7h.244Zm.121-15.9v.121l.606.121h.244l.244-.242Zm0,4.855v.244l.244-.244Zm.121,8.374v.121l.485.121.121-.121h.365l.123.121.971-.121v-.121l-.485-.121-.121.121H582.1l-.121-.121Zm0,3.034v.121h.244v-.121Zm.121-17.234h.243V37.35Zm.123,8.86V46.7h.242v-.244Zm0,1.456v.121h.365V47.91Zm0,7.4v.121h.365l.727-.121-.121-.121v-.121Zm.121-17.476h.365v-.244h-.121Zm.121,1.7-.121.121v.121h.121l.85-.121v-.121Zm-.121,2.063v.121h.729V41.6Zm0,1.7v.121h.244V43.3Zm0,3.642v.121h.244v-.121Zm0,6.068v.244l.244-.244Zm.121-7.889.244.244.244-.244V45Zm0,5.22h.365V50.1h-.121Zm0,4.49v.121h.365v-.121Zm.121-.365v.121h.365v-.121Zm.121-2.186V52.4h.607v-.121Zm0,3.763v.121h.486V56.04Zm0,1.821v.121h.244v-.121Zm.123-14.807.244.242.242-.242Zm0,4.247v.121h.244V47.3Zm0,.608v.121h.244V47.91Zm.727,2.669.485.121.121-.121.121.121v.121l-.244.242h-1.213v-.242Zm-.727,8.01v.121h.244v-.121Zm.121-21.117v.121h.365l.121-.121v-.121h-.121Zm0,9.345v.121h.244v-.121Zm.121-8.253.242.242v-.242Zm.123,9.1v.121h.244l-.121.121v.121h.365v-.244l-.365-.121h-.123Zm0,5.947v.121h.365v-.121Zm0,4.611v.121h.365v-.121Zm0,.365v.121h1.092v-.121Zm.121-16.991v.121h.244V41.6Zm0,5.7v.121h.364V47.3Zm0,2.792v.121h.244v-.121Zm.121-11.529.121.121v.121l.971-.121v-.121h-.242v-.121Zm.244,17.962h.121v.121l-.244.244h-.121v-.121Zm0-17.476.242.242V39.05Zm0,14.563v.121h.365l.121-.121v-.121h-.121Zm.121-7.645v.121h.244v-.121Zm0,.85v.121h.365v-.121Zm0,9.587h.365v.242h-.121Zm.121-16.142h1.456l-.244-.244-.121.121-.607-.121h-.243Zm0,17.962v.121h.971v-.121Zm.121-16.747v.244h.121v-.244Zm0,15.778v.121h.244v-.121Zm.121,1.577.243.244h.121l-.242-.244Zm.123-17.355V41.6h.121l.606-.121v-.121h-.365Zm0,16.02v.121h.365V57.5Zm.242-20.268v.121h.486v-.121Zm.123,1.821v.485l.485-.121v-.242Zm.121,19.539v.121h.365v-.121Zm.121-19.9v.121h.242v-.121Zm.121-.606c0,.244.161.365.485.365v.242H584.4v.121h.85v-.121h-.244v-.121l.244-.244v.121l.121-.121h.365l.121.121.364-.121-.244-.244h-1.819Zm.485,2.669v.121h.242v-.121Zm.486-.727v.244h.729l-.244-.244-.365.121Zm.121-.971.242.242V39.05Zm.244-.485v.121h.244v-.121Zm0,20.025h.485v.244h-.485Zm1.092-19.9q0,.365-.85.365v.121l.85.242q0-.242,1.336-.242l-.244-.244h-.85v-.244h-.242Zm.485-.121v.121h.365v-.121Zm0,1.092v.121h1.092l-.121-.121v-.121Zm1.336-.121v.121l.121.121V39.9l-.364.121v.121h1.092c0-.161-.2-.244-.606-.244l.121-.121v-.119l-.121-.121Zm.363,19.539V59.2h.244v-.121Zm.729-17.841.244.244h.242v-.244Zm2.184,17.234q0,.363-2.184.485c0,.181.364.3,1.092.365a6.365,6.365,0,0,1,3.155-.485l.244.244.244-.244h.244l.486.121.121-.121h.121l.727.244.729-.485.121.121.486-.121V58.47h-2.428l-.729.242-.244-.242h-1.092v.242h-.121V58.47h-.971Zm-1.092-17.112h.606l1.457-.121v-.121h-1.821Zm.242,16.505v.121h.485v-.121Zm0,.606v.121h.365v-.121Zm.365-16.384V42.2h.848v-.121Zm.244-3.519v.121h.485v-.121Zm0,8.86v.242h.244v-.242Zm0,5.218h.244V52.4Zm.727-9.345-.364-.121-.244.365v.121q1,0,1.213.727h.244l.242-.242c-.4,0-.606-.121-.606-.365l.365-.121c0-.161-.163-.244-.485-.244V43.3l.121-.121v-.121h-.121Zm-.485,2.671v.121h.244v-.121Zm0,7.16v.121h.485l.244-.244h-.121Zm.123-14.321v.121l.971.365.121-.121V39.05c-.244,0-.365-.081-.365-.244v-.121h1.334v.244h-.485v.121l1.092.121.606-.365v.244h.365l.486.121.85-.121v-.121l-.486-.121-.121.121h-.485v-.244H596.9l.242-.242h-3.034l-.607.121v-.121l-.121.121h-.121l-.727-.121Zm0,12.137v.121l1.213.121h.121v-.121l-.727-.121Zm0,1.577v.121h.242v-.121Zm0,5.1.242.244h.121v-.244h.121l.244.244c0,.161-.121.242-.365.242v.121h.121q.728-.242.729-.485v-.121l-.729-.121Zm0,.485.242.244V58.1Zm.606-18.568-.123.121v.121l-.121-.121h-.244v.121l.244.242h.244l.121-.121.121.121h.365A.573.573,0,0,0,592.411,39.535Zm-.486,10.073v.121h.365v-.121Zm0,2.427v.121h.244v-.121Zm0,3.034v.121h.365v-.121Zm4.37-10.679v.365c.242,0,.365.081.365.244v.242h-.485V45l-4.126.606v.121H593.5v-.242H594.6l.606-.121v.121l.121-.121h.244l.244.244.121-.121h1.336v-.121l-.123-.121.123-.121V45C597.266,44.814,596.941,44.612,596.294,44.39Zm-4.249,14.2h.244v.244h-.244Zm.121-16.02h.244l.121.121.121-.121.121-.365h-.121Zm.121,11.165v.121l.244.242h.365l-.121-.121v-.121l.121-.121Zm.123-4.976.242.242.485-.121v-.121Zm0,.85v.121h.242v-.121Zm.121-9.345v.121h.365v-.121Zm0,4.249v.244l.485.121.971-.121v-.121h-1.213l-.121-.121h-.123Zm0,10.558v.121h.727v-.121Zm.121-8.616v.121h.729v-.121Zm0,10.073v.121h.244v-.121Zm0,.606v.242h.244Zm0,2.063v.121h.244V59.2Zm.123-17.839.244.244h.242l-.121-.121v-.121l.244-.242h-.365Zm0,8.252v.121l.727.121.121-.121v-.121Zm.242,1.215v.121h.242v-.121Zm0,5.7v.121h.485v-.121Zm.121-2.548V54.1h.606v-.121Zm0,1.336v.121l.486.121c0-.161-.121-.242-.365-.242Zm0,1.819v.242h.121l.85-.121v-.121Zm0,.971v.121h.244V58.1Zm.121-10.923v.244l1.336-.121v-.121h-.244v-.121l-.121.121h-.971Zm0,1.577v.121l.244.242.121-.365h-.365Zm.123-5.947v.121h.244v-.121Zm.971.608c0,.244-.2.365-.607.365l-.121-.121-.121.121.121.121v.244h-.244v.121h.727v-.121h-.244V43.9h.244l.85-.121v-.121c-.244,0-.365-.081-.365-.244Zm-.971,8.737V52.4l.485-.121v-.242h-.121Zm0,2.186v.121l.364.121.121-.121v-.121Zm0,.727v.121h.364v-.121Zm0,1.821v.121h.244V56.89Zm.121-3.884v.121h.244v-.121Zm0,2.913v.121h.244v-.121Zm0,2.3h.365v-.244h-.121Zm.121-16.384v.121h.486V41.84Zm.971,13.958c-.284.485-.607.727-.971.727v.121h1.456v-.121h-.606v-.244h.242l-.121-.121V56.04h.244V55.8Zm-.85-14.321V41.6h.485v-.121Zm0,6.31v.244h.244Zm.121-1.819v.121h.608v-.121Zm0,4.976.364.365v-.121l-.244-.244Zm0,1.942v.121h.244v-.121Zm0,1.092V54.1h.485l-.121-.121v-.121Zm.123,1.336-.121.121.121.486.486-.244v-.244Zm.85,1.577q0,.365-.971.606v.121h.608a.823.823,0,0,1,.607-.365l-.121-.121v-.121l.121-.121Zm-.85-10.316V46.7l.486.121c0-.161-.121-.244-.365-.244h-.121Zm0,5.7V52.4h.607v-.244Zm.121-13.592h.244l.244.244h-.485v-.244Zm0,1.577v.121l.606.121v-.244h-.606Zm0,.485v.121h.365v-.121Zm0,1.7v.121h.85v-.121Zm.485,1.819c0,.161-.121.242-.365.242v.121l.365.121a.655.655,0,0,0,.485-.485h-.485Zm-.363,12.623v.121h.243V56.89Zm0,1.092V58.1l.485.121v-.244h-.485Zm.121-5.1v.121h.364v-.121Zm.121-2.671v.244l.485.121-.121-.365Zm0,3.157v.121h.365v-.121Zm0,.971v.244h.242v-.244Zm.121-13.594v.121h.244v-.121Zm0,10.2v.244l.121.121h.244v-.121l-.244-.244Zm.121-4.734v.121l.606.121-.242-.242Zm0,.971v.244l.244.242.244-.365.121.121h.244l.244-.244h-1.1Zm0,4.976v.121h.244v-.121Zm0,1.456v.121h.244v-.121Zm.123-2.063v.121h1.942V51.55Zm0,2.792v.244l.485-.121v-.121h-.485Zm.242-14.807-.121.365,1.577-.242.606.121v-.244Zm-.121,10.073v.121h.606v-.121Zm0,6.068.365.365-.121.121V56.4h.121l.485-.485h.121l-.242-.244Zm0,1.942v.121h.244v-.121Zm0,.365V58.1l.365.121v-.244h-.365Zm.121-14.928v.121h.607l.606-.121v-.121h-.364Zm0,7.16v.121l.971.121h.121v-.121l-.607-.121Zm.121-5.7v.244h.121l.244-.244Zm0,7.524v.121h.727v-.121Zm.244,1.336-.121.365h.121l.485-.121v-.242h-.242l-.121-.121Zm-.123,3.155.121.121v.121c.383-.1.586-.262.606-.485h-.121Zm.123-15.9v.121h.971l.244-.242h-.606Zm0,5.22v.121l1.7.121v-.244h-1.7Zm0,11.286V57.5h.244v-.121Zm.121-3.155v.242h.244v-.242Zm.121-11.529v.121h1.456v-.242Zm0,10.558v.121h.848v.606h.121l.121-.727h-.121l-.607-.121Zm.122-11.408.121.121v.121l-.121.121h.244l.121-.365h-.365Zm0,3.034v.121h.244v-.121Zm0,3.4v.121h.85v-.121Zm0,.85V49h.244v-.121Zm0,6.432v.121c.4.02.607.1.607.244l-.121.365c.4.163.606.324.606.486h.242l-.121-.121v-.121l.121-.121h-.121l.121-.121V55.8H596.9l-.121.121h-.121l-.244-.606h.244V55.2Zm0,1.577v.121h.486V56.89Zm.121-1.942v.121h.244v-.121Zm0,2.307v.121h.244v-.121Zm.121-5.22v.242h.486l.244-.242Zm.121-3.155V49l.364.121.121-.121v-.121Zm0,5.1V54.1h.364v-.121Zm.123-2.913v.121h.606v-.121Zm.121-7.645v.121h.244v-.121Zm0,6.189v.121h.727v-.121Zm0,7.647v.121h.244v-.121Zm.121-19.783v.121h.606v-.121Zm.121-14.442h.244v.242h-.244Zm.121.606h.244v.242h-.244Zm0,2.548h.244v.242h-.244Zm0,22.573v.121h.365v-.121Zm0,5.584v.121h.244v-.121Zm.123-15.536v.121h.242v-.121Zm0,18.812v.121h.242v-.121Zm0,.365V58.1h.365v-.121Zm.121-17.6v.121h.244v-.121Zm0,11.65v.121h.244v-.121Zm0,3.278v.242h.121v-.242Zm0,1.819v.121h.244v-.121Zm.121-26.578h.244V30.8h-.244Zm0,.85h.244v.485h-.244Zm0,4h.244v.244h-.244Zm0,.485h.244v.365h-.244Zm.123-3.521h.244v.244h-.244Zm.121,6.07v.121h.244v-.121Zm0,3.884v.242h.244v-.242Zm.242-15.413.244.242V27.4h-.244Zm.244,1.819h.121l.244.242-.121.121h-.121l-.121-.121v-.242Zm0,1.215h.244v.971h-.244Zm.121,2.426h.244v.244h-.244Zm0,.486h.244l.121.485-.121.121v.121l.121.486v.121h-.244l-.121-.85Zm.121,1.7h.244v.85l-.244.244h-.121v-.244Zm-.121,23.18h.364V57.5h-.121Zm.121.244V58.1h.365v-.121Zm0,.485.121.365.606-.121V58.47h-.727Zm.244-19.054v.242h.485l1.092-.121.485.121v-.244h-2.063Zm.121-.971v.121l1.456.121h.121l-.244-.242Zm0,2.548v.121h.244v-.121Zm0,6.8v.365h.121v-.365Zm.121,11.166v.121h.244v-.121Zm1.821-20.268h1.457v-.242h-1.213Z" transform="translate(-463.977 -20.268)"/></g><g transform="translate(46.262 52.929)"><path class="a" d="M262.65,290.949a3.143,3.143,0,0,1-.237,1.243,2.708,2.708,0,0,1-.679.956,2.993,2.993,0,0,1-1.07.613,4.427,4.427,0,0,1-1.414.213,6.489,6.489,0,0,1-1.332-.139,4.976,4.976,0,0,1-1.193-.4,2.874,2.874,0,0,1-.867-.63,1.2,1.2,0,0,1-.336-.825V290.23h.328a3.972,3.972,0,0,0,1.08,2.37,3.154,3.154,0,0,0,2.186.719,3,3,0,0,0,.8-.106,2.063,2.063,0,0,0,.674-.319,1.646,1.646,0,0,0,.47-.522,1.414,1.414,0,0,0,.178-.719,1.787,1.787,0,0,0-.449-1.226,5.512,5.512,0,0,0-1.349-1.03l-2.011-1.194a4.59,4.59,0,0,1-1.48-1.258,2.7,2.7,0,0,1-.433-1.554,2.744,2.744,0,0,1,.228-1.144,2.573,2.573,0,0,1,.645-.875,2.872,2.872,0,0,1,1-.564,4.033,4.033,0,0,1,1.3-.2,6.024,6.024,0,0,1,1.233.131,4.644,4.644,0,0,1,1.137.385,2.731,2.731,0,0,1,.833.622,1.21,1.21,0,0,1,.328.825v1.749H261.9a3.98,3.98,0,0,0-1.055-2.354,3.112,3.112,0,0,0-2.16-.7,2.207,2.207,0,0,0-.7.114,1.893,1.893,0,0,0-.6.328,1.648,1.648,0,0,0-.422.522,1.47,1.47,0,0,0-.163.687,1.683,1.683,0,0,0,.114.638,1.743,1.743,0,0,0,.343.522,3.485,3.485,0,0,0,.573.482q.343.237.785.5l2.011,1.194c.348.207.65.407.907.6a3.2,3.2,0,0,1,.63.6,2.326,2.326,0,0,1,.368.679A2.484,2.484,0,0,1,262.65,290.949Z" transform="translate(-255.52 -282.58)"/><path class="a" d="M313.173,284.37v.654h-3.679V295.16h-1.472V285.023H306.55a2.269,2.269,0,0,0-1.512.45,1.772,1.772,0,0,0-.531,1.431h-.328v-1.226a2.022,2.022,0,0,1,.057-.482.976.976,0,0,1,.213-.417,1.14,1.14,0,0,1,.425-.294,1.811,1.811,0,0,1,.7-.114h7.6Z" transform="translate(-296.005 -284.044)"/><path class="a" d="M361.223,286.324a2.9,2.9,0,0,0-.205-1.186c-.136-.3-.448-.45-.941-.45h-.328v-.328h1.472a2.92,2.92,0,0,1,.711.074.815.815,0,0,1,.457.294,1.351,1.351,0,0,1,.237.6,6.093,6.093,0,0,1,.066.99v4.66a7.272,7.272,0,0,0,.148,1.546,3.008,3.008,0,0,0,.491,1.152,2.228,2.228,0,0,0,.892.727,3.233,3.233,0,0,0,1.366.254,4.4,4.4,0,0,0,1.569-.245,2.3,2.3,0,0,0,1.03-.761,3.176,3.176,0,0,0,.556-1.3,9.23,9.23,0,0,0,.163-1.863V284.36h.654v6.132a10.935,10.935,0,0,1-.18,2.1,3.589,3.589,0,0,1-.645,1.512,2.8,2.8,0,0,1-1.275.907,5.99,5.99,0,0,1-2.068.3,5.693,5.693,0,0,1-1.994-.3,2.913,2.913,0,0,1-1.283-.907,3.713,3.713,0,0,1-.687-1.512,9.642,9.642,0,0,1-.2-2.1Z" transform="translate(-342.24 -284.036)"/><path class="a" d="M431.592,284.37a9.584,9.584,0,0,1,2.829.376,5.5,5.5,0,0,1,2,1.063,4.357,4.357,0,0,1,1.193,1.675,5.856,5.856,0,0,1,.4,2.216,6.09,6.09,0,0,1-.385,2.2,4.677,4.677,0,0,1-1.136,1.725,5.335,5.335,0,0,1-1.871,1.129,7.6,7.6,0,0,1-2.607.408h-3.237v-8.828a2.9,2.9,0,0,0-.2-1.186c-.136-.3-.45-.45-.941-.45h-.328v-.328Zm-1.26,10.006a7.881,7.881,0,0,0,1.658.213,4.2,4.2,0,0,0,1.675-.336,3.834,3.834,0,0,0,1.349-.964,4.615,4.615,0,0,0,.9-1.52,6.31,6.31,0,0,0,.007-3.973,4.575,4.575,0,0,0-.887-1.529,3.865,3.865,0,0,0-1.357-.981,4.256,4.256,0,0,0-1.715-.343,4.981,4.981,0,0,0-.773.066,6.53,6.53,0,0,0-.853.2v9.171Z" transform="translate(-398.451 -284.044)"/><path class="a" d="M503.99,284.37h1.472V293.2a2.875,2.875,0,0,0,.2,1.186q.2.451.939.45h.328v.328h-1.472a2.91,2.91,0,0,1-.711-.074.828.828,0,0,1-.459-.294,1.338,1.338,0,0,1-.237-.6,6.049,6.049,0,0,1-.066-1Z" transform="translate(-462.249 -284.044)"/><path class="a" d="M526.86,288.152a7.008,7.008,0,0,1,.351-2.239,5.485,5.485,0,0,1,1.013-1.823,4.716,4.716,0,0,1,1.6-1.218,5.215,5.215,0,0,1,4.2,0,4.716,4.716,0,0,1,1.6,1.218,5.429,5.429,0,0,1,1.013,1.823,7.342,7.342,0,0,1,0,4.487,5.494,5.494,0,0,1-1.013,1.814,4.716,4.716,0,0,1-1.6,1.218,5.215,5.215,0,0,1-4.2,0,4.716,4.716,0,0,1-1.6-1.218,5.434,5.434,0,0,1-1.013-1.814A6.939,6.939,0,0,1,526.86,288.152Zm8.5,0a8.617,8.617,0,0,0-.237-2.1,5.143,5.143,0,0,0-.679-1.6,3.065,3.065,0,0,0-1.078-1.013,3.124,3.124,0,0,0-2.878,0,3.1,3.1,0,0,0-1.079,1.013,5.143,5.143,0,0,0-.679,1.6,9.444,9.444,0,0,0,0,4.2,5.143,5.143,0,0,0,.679,1.6,3.066,3.066,0,0,0,1.079,1.013,3.124,3.124,0,0,0,2.878,0,3.08,3.08,0,0,0,1.078-1.013,5.143,5.143,0,0,0,.679-1.6A8.549,8.549,0,0,0,535.36,288.152Z" transform="translate(-481.277 -282.43)"/></g><g transform="translate(6.733 56.836)"><g transform="translate(98.652)"><g transform="translate(0 1.272)"><rect class="a" width="35.987" height="0.726"/></g><rect class="a" width="35.987" height="0.363"/><g transform="translate(0 2.757)"><rect class="a" width="35.987" height="1.453"/></g></g><g transform="translate(0 1.272)"><rect class="a" width="35.986" height="0.726"/></g><rect class="a" width="35.986" height="0.363"/><g transform="translate(0 2.757)"><rect class="a" width="35.986" height="1.453"/></g></g></g></svg>